RobotoSerifMicro-HairlineWideItalic.ufo
<glyph name="numbersign" format="2">
  <advance width="761"/>
  <unicode hex="0023"/>
  <outline>
    <contour>
      <point x="73" y="0" type="line"/>
      <point x="113" y="0" type="line"/>
      <point x="458" y="780" type="line"/>
      <point x="418" y="780" type="line"/>
    </contour>
    <contour>
      <point x="14" y="241" type="line"/>
      <point x="640" y="241" type="line"/>
      <point x="651" y="279" type="line"/>
      <point x="25" y="279" type="line"/>
    </contour>
    <contour>
      <point x="136" y="521" type="line"/>
      <point x="762" y="521" type="line"/>
      <point x="772" y="559" type="line"/>
      <point x="146" y="559" type="line"/>
    </contour>
    <contour>
      <point x="320" y="0" type="line"/>
      <point x="360" y="0" type="line"/>
      <point x="703" y="780" type="line"/>
      <point x="664" y="780" type="line"/>
    </contour>
  </outline>
</glyph>
<glyph name="percent" format="2">
  <advance width="826"/>
  <unicode hex="0025"/>
  <outline>
    <contour>
      <point x="277" y="750" type="curve" smooth="yes"/>
      <point x="150" y="750"/>
      <point x="90" y="596"/>
      <point x="90" y="482" type="curve" smooth="yes"/>
      <point x="90" y="406"/>
      <point x="131" y="363"/>
      <point x="211" y="363" type="curve" smooth="yes"/>
      <point x="338" y="363"/>
      <point x="398" y="517"/>
      <point x="398" y="631" type="curve" smooth="yes"/>
      <point x="398" y="707"/>
      <point x="357" y="750"/>
    </contour>
    <contour>
      <point x="276" y="726" type="curve" smooth="yes"/>
      <point x="322" y="726"/>
      <point x="351" y="704"/>
      <point x="351" y="632" type="curve" smooth="yes"/>
      <point x="351" y="569"/>
      <point x="315" y="387"/>
      <point x="212" y="387" type="curve" smooth="yes"/>
      <point x="166" y="387"/>
      <point x="137" y="409"/>
      <point x="137" y="481" type="curve" smooth="yes"/>
      <point x="137" y="544"/>
      <point x="173" y="726"/>
    </contour>
    <contour>
      <point x="633" y="371" type="curve" smooth="yes"/>
      <point x="506" y="371"/>
      <point x="446" y="217"/>
      <point x="446" y="103" type="curve" smooth="yes"/>
      <point x="446" y="27"/>
      <point x="487" y="-16"/>
      <point x="567" y="-16" type="curve" smooth="yes"/>
      <point x="694" y="-16"/>
      <point x="753" y="138"/>
      <point x="753" y="252" type="curve" smooth="yes"/>
      <point x="753" y="328"/>
      <point x="713" y="371"/>
    </contour>
    <contour>
      <point x="632" y="347" type="curve" smooth="yes"/>
      <point x="678" y="347"/>
      <point x="707" y="325"/>
      <point x="707" y="253" type="curve" smooth="yes"/>
      <point x="707" y="190"/>
      <point x="671" y="8"/>
      <point x="568" y="8" type="curve" smooth="yes"/>
      <point x="521" y="8"/>
      <point x="492" y="30"/>
      <point x="492" y="102" type="curve" smooth="yes"/>
      <point x="492" y="165"/>
      <point x="529" y="347"/>
    </contour>
    <component base="fraction" xOffset="334"/>
  </outline>
</glyph>
<glyph name="ampersand" format="2">
  <advance width="803"/>
  <unicode hex="0026"/>
  <outline>
    <contour>
      <point x="685" y="0" type="line"/>
      <point x="695" y="36" type="line"/>
      <point x="652" y="36" type="line" smooth="yes"/>
      <point x="607" y="36"/>
      <point x="582" y="46"/>
      <point x="556" y="81" type="curve" smooth="yes"/>
      <point x="350" y="379"/>
      <point x="311" y="446"/>
      <point x="311" y="530" type="curve" smooth="yes"/>
      <point x="311" y="626"/>
      <point x="361" y="680"/>
      <point x="453" y="680" type="curve" smooth="yes"/>
      <point x="524" y="680"/>
      <point x="556" y="647"/>
      <point x="556" y="593" type="curve" smooth="yes"/>
      <point x="556" y="489"/>
      <point x="487" y="460"/>
      <point x="315" y="417" type="curve"/>
      <point x="323" y="392" type="line"/>
      <point x="524" y="431"/>
      <point x="607" y="490"/>
      <point x="607" y="592" type="curve" smooth="yes"/>
      <point x="607" y="665"/>
      <point x="570" y="718"/>
      <point x="453" y="718" type="curve" smooth="yes"/>
      <point x="323" y="718"/>
      <point x="256" y="644"/>
      <point x="256" y="531" type="curve" smooth="yes"/>
      <point x="256" y="433"/>
      <point x="297" y="379"/>
      <point x="553" y="0" type="curve"/>
    </contour>
    <contour>
      <point x="271" y="24" type="curve" smooth="yes"/>
      <point x="165" y="24"/>
      <point x="100" y="74"/>
      <point x="100" y="173" type="curve" smooth="yes"/>
      <point x="100" y="301"/>
      <point x="181" y="350"/>
      <point x="307" y="390" type="curve"/>
      <point x="290" y="414" type="line"/>
      <point x="151" y="379"/>
      <point x="45" y="313"/>
      <point x="45" y="174" type="curve" smooth="yes"/>
      <point x="45" y="52"/>
      <point x="127" y="-10"/>
      <point x="267" y="-10" type="curve" smooth="yes"/>
      <point x="500" y="-10"/>
      <point x="629" y="224"/>
      <point x="674" y="322" type="curve" smooth="yes"/>
      <point x="689" y="353"/>
      <point x="713" y="358"/>
      <point x="765" y="358" type="curve" smooth="yes"/>
      <point x="774" y="358" type="line"/>
      <point x="786" y="397" type="line"/>
      <point x="563" y="397" type="line"/>
      <point x="552" y="358" type="line"/>
      <point x="566" y="358" type="line" smooth="yes"/>
      <point x="587" y="358"/>
      <point x="636" y="355"/>
      <point x="636" y="348" type="curve"/>
      <point x="613" y="239"/>
      <point x="471" y="24"/>
    </contour>
  </outline>
</glyph>
<glyph name="one" format="2">
  <advance width="594"/>
  <unicode hex="0031"/>
  <outline>
    <contour>
      <point x="293" y="70" type="curve" smooth="yes"/>
      <point x="452" y="683" type="line"/>
      <point x="411" y="683" type="line"/>
      <point x="363" y="602"/>
      <point x="299" y="580"/>
      <point x="169" y="577" type="curve"/>
      <point x="157" y="535" type="line"/>
      <point x="277" y="535"/>
      <point x="371" y="573"/>
      <point x="406" y="641" type="curve"/>
      <point x="388" y="627" type="line"/>
      <point x="244" y="70" type="line" smooth="yes"/>
      <point x="237" y="41"/>
      <point x="192" y="34"/>
      <point x="112" y="34" type="curve" smooth="yes"/>
      <point x="46" y="34" type="line"/>
      <point x="36" y="0" type="line"/>
      <point x="449" y="0" type="line"/>
      <point x="459" y="34" type="line"/>
      <point x="417" y="34" type="line"/>
      <point x="330" y="34"/>
      <point x="286" y="41"/>
    </contour>
  </outline>
</glyph>
<glyph name="three" format="2">
  <advance width="594"/>
  <unicode hex="0033"/>
  <outline>
    <contour>
      <point x="250" y="-46" type="curve" smooth="yes"/>
      <point x="90" y="-46"/>
      <point x="12" y="32"/>
      <point x="-9" y="123" type="curve"/>
      <point x="40" y="136" type="line"/>
      <point x="62" y="63"/>
      <point x="109" y="-5"/>
      <point x="252" y="-5" type="curve" smooth="yes"/>
      <point x="371" y="-5"/>
      <point x="445" y="62"/>
      <point x="445" y="168" type="curve" smooth="yes"/>
      <point x="445" y="266"/>
      <point x="385" y="317"/>
      <point x="259" y="317" type="curve" smooth="yes"/>
      <point x="179" y="317" type="line"/>
      <point x="190" y="355" type="line"/>
      <point x="276" y="355" type="line"/>
      <point x="414" y="355"/>
      <point x="500" y="407"/>
      <point x="500" y="542" type="curve" smooth="yes"/>
      <point x="500" y="614"/>
      <point x="442" y="652"/>
      <point x="347" y="652" type="curve" smooth="yes"/>
      <point x="266" y="652"/>
      <point x="209" y="624"/>
      <point x="191" y="616" type="curve"/>
      <point x="180" y="614"/>
      <point x="202" y="629"/>
      <point x="232" y="633" type="curve"/>
      <point x="193" y="487" type="line"/>
      <point x="136" y="487" type="line"/>
      <point x="180" y="655" type="line"/>
      <point x="207" y="668"/>
      <point x="275" y="694"/>
      <point x="348" y="694" type="curve" smooth="yes"/>
      <point x="476" y="694"/>
      <point x="554" y="631"/>
      <point x="554" y="540" type="curve" smooth="yes"/>
      <point x="554" y="404"/>
      <point x="458" y="342"/>
      <point x="319" y="337" type="curve"/>
      <point x="330" y="348" type="line"/>
      <point x="322" y="319" type="line"/>
      <point x="321" y="334" type="line"/>
      <point x="451" y="311"/>
      <point x="503" y="254"/>
      <point x="503" y="169" type="curve" smooth="yes"/>
      <point x="503" y="56"/>
      <point x="410" y="-46"/>
    </contour>
  </outline>
</glyph>
<glyph name="five" format="2">
  <advance width="594"/>
  <unicode hex="0035"/>
  <outline>
    <contour>
      <point x="249" y="-48" type="curve" smooth="yes"/>
      <point x="433" y="-48"/>
      <point x="518" y="119"/>
      <point x="518" y="268" type="curve" smooth="yes"/>
      <point x="518" y="388"/>
      <point x="448" y="438"/>
      <point x="354" y="438" type="curve" smooth="yes"/>
      <point x="267" y="438"/>
      <point x="209" y="386"/>
      <point x="145" y="294" type="curve"/>
      <point x="166" y="309" type="line"/>
      <point x="257" y="655" type="line"/>
      <point x="237" y="631" type="line"/>
      <point x="551" y="631" type="line"/>
      <point x="576" y="675" type="line"/>
      <point x="223" y="675" type="line"/>
      <point x="119" y="281" type="line"/>
      <point x="160" y="281" type="line"/>
      <point x="219" y="357"/>
      <point x="259" y="397"/>
      <point x="349" y="397" type="curve" smooth="yes"/>
      <point x="419" y="397"/>
      <point x="465" y="357"/>
      <point x="465" y="271" type="curve" smooth="yes"/>
      <point x="465" y="155"/>
      <point x="408" y="-8"/>
      <point x="251" y="-8" type="curve" smooth="yes"/>
      <point x="120" y="-8"/>
      <point x="97" y="72"/>
      <point x="80" y="110" type="curve"/>
      <point x="29" y="94" type="line"/>
      <point x="53" y="23"/>
      <point x="107" y="-48"/>
    </contour>
  </outline>
</glyph>
<glyph name="less" format="2">
  <advance width="594"/>
  <unicode hex="003C"/>
  <outline>
    <contour>
      <point x="467" y="122" type="line"/>
      <point x="57" y="309" type="line"/>
      <point x="73" y="361" type="line"/>
      <point x="580" y="550" type="line"/>
      <point x="567" y="505" type="line"/>
      <point x="85" y="329" type="line"/>
      <point x="91" y="341" type="line"/>
      <point x="478" y="163" type="line"/>
    </contour>
  </outline>
</glyph>
<glyph name="A" format="2">
  <advance width="737"/>
  <unicode hex="0041"/>
  <anchor x="365" y="721" name="top"/>
  <anchor x="567" y="0" name="right"/>
  <anchor x="365" y="0" name="bottom"/>
  <outline>
    <contour>
      <point x="211" y="289" type="line"/>
      <point x="186" y="251" type="line"/>
      <point x="543" y="251" type="line"/>
      <point x="534" y="289" type="line"/>
    </contour>
    <contour>
      <point x="483" y="722" type="line"/>
      <point x="541" y="55" type="line"/>
      <point x="539" y="48"/>
      <point x="502" y="44"/>
      <point x="443" y="44" type="curve" smooth="yes"/>
      <point x="432" y="44" type="line"/>
      <point x="420" y="0" type="line"/>
      <point x="655" y="0" type="line"/>
      <point x="667" y="44" type="line"/>
      <point x="661" y="44" type="line" smooth="yes"/>
      <point x="618" y="44"/>
      <point x="591" y="55"/>
      <point x="587" y="108" type="curve" smooth="yes"/>
      <point x="532" y="722" type="line"/>
      <point x="450" y="722" type="line"/>
      <point x="73" y="108" type="line" smooth="yes"/>
      <point x="40" y="55"/>
      <point x="8" y="44"/>
      <point x="-35" y="44" type="curve" smooth="yes"/>
      <point x="-41" y="44" type="line"/>
      <point x="-54" y="0" type="line"/>
      <point x="185" y="0" type="line"/>
      <point x="198" y="44" type="line"/>
      <point x="187" y="44" type="line" smooth="yes"/>
      <point x="128" y="44"/>
      <point x="94" y="54"/>
      <point x="98" y="67" type="curve"/>
      <point x="498" y="728" type="line"/>
    </contour>
  </outline>
</glyph>
<glyph name="B" format="2">
  <advance width="699"/>
  <unicode hex="0042"/>
  <outline>
    <contour>
      <point x="402" y="356" type="line" smooth="yes"/>
      <point x="527" y="356"/>
      <point x="568" y="295"/>
      <point x="568" y="208" type="curve" smooth="yes"/>
      <point x="568" y="101"/>
      <point x="505" y="39"/>
      <point x="378" y="39" type="curve" smooth="yes"/>
      <point x="138" y="39" type="line"/>
      <point x="220" y="356" type="line"/>
    </contour>
    <contour>
      <point x="462" y="671" type="line" smooth="yes"/>
      <point x="568" y="671"/>
      <point x="608" y="633"/>
      <point x="608" y="557" type="curve" smooth="yes"/>
      <point x="608" y="462"/>
      <point x="540" y="388"/>
      <point x="419" y="388" type="curve" smooth="yes"/>
      <point x="230" y="388" type="line"/>
      <point x="304" y="671" type="line"/>
    </contour>
    <contour>
      <point x="466" y="371" type="line"/>
      <point x="584" y="374"/>
      <point x="664" y="441"/>
      <point x="664" y="556" type="curve" smooth="yes"/>
      <point x="664" y="650"/>
      <point x="599" y="710"/>
      <point x="461" y="710" type="curve" smooth="yes"/>
      <point x="164" y="710" type="line"/>
      <point x="152" y="666" type="line"/>
      <point x="163" y="666" type="line" smooth="yes"/>
      <point x="215" y="666"/>
      <point x="251" y="660"/>
      <point x="244" y="630" type="curve" smooth="yes"/>
      <point x="99" y="80" type="line" smooth="yes"/>
      <point x="91" y="51"/>
      <point x="51" y="44"/>
      <point x="-1" y="44" type="curve" smooth="yes"/>
      <point x="-13" y="44" type="line"/>
      <point x="-25" y="0" type="line"/>
      <point x="379" y="0" type="line" smooth="yes"/>
      <point x="531" y="0"/>
      <point x="625" y="82"/>
      <point x="625" y="212" type="curve" smooth="yes"/>
      <point x="625" y="304"/>
      <point x="564" y="364"/>
      <point x="462" y="372" type="curve"/>
      <point x="483" y="358" type="line"/>
      <point x="487" y="378" type="line"/>
    </contour>
  </outline>
</glyph>
<glyph name="E" format="2">
  <advance width="703"/>
  <unicode hex="0045"/>
  <anchor x="412" y="741" name="top"/>
  <anchor x="478" y="0" name="right"/>
  <anchor x="412" y="0" name="bottom"/>
  <outline>
    <contour>
      <point x="628" y="215" type="line"/>
      <point x="580" y="215" type="line"/>
      <point x="530" y="84" type="line" smooth="yes"/>
      <point x="517" y="48"/>
      <point x="476" y="39"/>
      <point x="385" y="39" type="curve" smooth="yes"/>
      <point x="138" y="39" type="line"/>
      <point x="304" y="671" type="line"/>
      <point x="515" y="671" type="line" smooth="yes"/>
      <point x="606" y="671"/>
      <point x="638" y="662"/>
      <point x="634" y="626" type="curve" smooth="yes"/>
      <point x="622" y="520" type="line"/>
      <point x="667" y="520" type="line"/>
      <point x="712" y="710" type="line"/>
      <point x="164" y="710" type="line"/>
      <point x="152" y="666" type="line"/>
      <point x="163" y="666" type="line" smooth="yes"/>
      <point x="215" y="666"/>
      <point x="251" y="659"/>
      <point x="244" y="630" type="curve" smooth="yes"/>
      <point x="99" y="80" type="line" smooth="yes"/>
      <point x="91" y="51"/>
      <point x="51" y="44"/>
      <point x="-1" y="44" type="curve" smooth="yes"/>
      <point x="-13" y="44" type="line"/>
      <point x="-25" y="0" type="line"/>
      <point x="572" y="0" type="line"/>
    </contour>
    <contour>
      <point x="210" y="384" type="curve"/>
      <point x="200" y="348" type="line"/>
      <point x="312" y="345"/>
      <point x="423" y="343"/>
      <point x="536" y="341" type="curve"/>
      <point x="553" y="392" type="line"/>
      <point x="438" y="390"/>
      <point x="325" y="386"/>
    </contour>
  </outline>
</glyph>
<glyph name="H" format="2">
  <advance width="854"/>
  <unicode hex="0048"/>
  <anchor x="428" y="741" name="top"/>
  <anchor x="428" y="0" name="bottom"/>
  <outline>
    <contour>
      <point x="217" y="385" type="line"/>
      <point x="206" y="347" type="line"/>
      <point x="677" y="347" type="line"/>
      <point x="688" y="385" type="line"/>
    </contour>
    <contour>
      <point x="-25" y="0" type="line"/>
      <point x="228" y="0" type="line"/>
      <point x="240" y="44" type="line"/>
      <point x="231" y="44" type="line" smooth="yes"/>
      <point x="191" y="44"/>
      <point x="140" y="47"/>
      <point x="142" y="54" type="curve" smooth="yes"/>
      <point x="301" y="656" type="line" smooth="yes"/>
      <point x="303" y="663"/>
      <point x="355" y="666"/>
      <point x="395" y="666" type="curve" smooth="yes"/>
      <point x="405" y="666" type="line"/>
      <point x="417" y="710" type="line"/>
      <point x="164" y="710" type="line"/>
      <point x="152" y="666" type="line"/>
      <point x="163" y="666" type="line" smooth="yes"/>
      <point x="215" y="666"/>
      <point x="251" y="659"/>
      <point x="244" y="630" type="curve" smooth="yes"/>
      <point x="99" y="80" type="line" smooth="yes"/>
      <point x="91" y="51"/>
      <point x="51" y="44"/>
      <point x="-1" y="44" type="curve" smooth="yes"/>
      <point x="-13" y="44" type="line"/>
    </contour>
    <contour>
      <point x="461" y="0" type="line"/>
      <point x="716" y="0" type="line"/>
      <point x="728" y="44" type="line"/>
      <point x="716" y="44" type="line" smooth="yes"/>
      <point x="664" y="44"/>
      <point x="628" y="51"/>
      <point x="636" y="80" type="curve" smooth="yes"/>
      <point x="781" y="630" type="line" smooth="yes"/>
      <point x="788" y="659"/>
      <point x="828" y="666"/>
      <point x="880" y="666" type="curve" smooth="yes"/>
      <point x="892" y="666" type="line"/>
      <point x="904" y="710" type="line"/>
      <point x="651" y="710" type="line"/>
      <point x="639" y="666" type="line"/>
      <point x="648" y="666" type="line" smooth="yes"/>
      <point x="689" y="666"/>
      <point x="739" y="663"/>
      <point x="737" y="656" type="curve" smooth="yes"/>
      <point x="579" y="54" type="line" smooth="yes"/>
      <point x="576" y="47"/>
      <point x="523" y="44"/>
      <point x="483" y="44" type="curve" smooth="yes"/>
      <point x="473" y="44" type="line"/>
    </contour>
  </outline>
</glyph>
<glyph name="I" format="2">
  <advance width="381"/>
  <unicode hex="0049"/>
  <anchor x="192" y="741" name="top"/>
  <anchor x="248" y="0" name="right"/>
  <anchor x="192" y="0" name="bottom"/>
  <outline>
    <contour>
      <point x="106" y="80" type="line" smooth="yes"/>
      <point x="99" y="51"/>
      <point x="58" y="44"/>
      <point x="6" y="44" type="curve" smooth="yes"/>
      <point x="-15" y="44" type="line"/>
      <point x="-27" y="0" type="line"/>
      <point x="245" y="0" type="line"/>
      <point x="257" y="44" type="line"/>
      <point x="236" y="44" type="line" smooth="yes"/>
      <point x="184" y="44"/>
      <point x="148" y="51"/>
      <point x="155" y="80" type="curve" smooth="yes"/>
      <point x="300" y="630" type="line" smooth="yes"/>
      <point x="308" y="659"/>
      <point x="348" y="666"/>
      <point x="400" y="666" type="curve" smooth="yes"/>
      <point x="421" y="666" type="line"/>
      <point x="434" y="710" type="line"/>
      <point x="162" y="710" type="line"/>
      <point x="149" y="666" type="line"/>
      <point x="170" y="666" type="line" smooth="yes"/>
      <point x="222" y="666"/>
      <point x="258" y="659"/>
      <point x="251" y="630" type="curve" smooth="yes"/>
    </contour>
  </outline>
</glyph>
<glyph name="J" format="2">
  <advance width="695"/>
  <unicode hex="004A"/>
  <anchor x="462" y="741" name="top"/>
  <outline>
    <contour>
      <point x="561" y="630" type="curve" smooth="yes"/>
      <point x="448" y="199" type="line" smooth="yes"/>
      <point x="412" y="64"/>
      <point x="352" y="16"/>
      <point x="237" y="16" type="curve" smooth="yes"/>
      <point x="153" y="16"/>
      <point x="94" y="32"/>
      <point x="58" y="69" type="curve"/>
      <point x="56" y="45"/>
      <point x="45" y="45"/>
      <point x="75" y="38" type="curve"/>
      <point x="122" y="213" type="line"/>
      <point x="60" y="213" type="line"/>
      <point x="13" y="35" type="line"/>
      <point x="57" y="1"/>
      <point x="126" y="-25"/>
      <point x="235" y="-25" type="curve" smooth="yes"/>
      <point x="374" y="-25"/>
      <point x="455" y="39"/>
      <point x="497" y="200" type="curve" smooth="yes"/>
      <point x="611" y="630" type="line" smooth="yes"/>
      <point x="618" y="659"/>
      <point x="659" y="666"/>
      <point x="710" y="666" type="curve" smooth="yes"/>
      <point x="738" y="666" type="line"/>
      <point x="750" y="710" type="line"/>
      <point x="459" y="710" type="line"/>
      <point x="447" y="666" type="line"/>
      <point x="481" y="666" type="line" smooth="yes"/>
      <point x="533" y="666"/>
      <point x="569" y="659"/>
    </contour>
  </outline>
</glyph>
<glyph name="L" format="2">
  <advance width="711"/>
  <unicode hex="004C"/>
  <anchor x="428" y="741" name="top"/>
  <anchor x="528" y="710" name="right"/>
  <anchor x="530" y="410" name="mid"/>
  <anchor x="428" y="0" name="bottom"/>
  <outline>
    <contour>
      <point x="433" y="710" type="line"/>
      <point x="164" y="710" type="line"/>
      <point x="152" y="666" type="line"/>
      <point x="163" y="666" type="line" smooth="yes"/>
      <point x="215" y="666"/>
      <point x="251" y="659"/>
      <point x="244" y="630" type="curve" smooth="yes"/>
      <point x="99" y="80" type="line" smooth="yes"/>
      <point x="91" y="51"/>
      <point x="51" y="44"/>
      <point x="-1" y="44" type="curve" smooth="yes"/>
      <point x="-13" y="44" type="line"/>
      <point x="-25" y="0" type="line"/>
      <point x="566" y="0" type="line"/>
      <point x="627" y="241" type="line"/>
      <point x="579" y="241" type="line"/>
      <point x="523" y="84" type="line" smooth="yes"/>
      <point x="509" y="48"/>
      <point x="468" y="39"/>
      <point x="377" y="39" type="curve" smooth="yes"/>
      <point x="138" y="39" type="line"/>
      <point x="293" y="630" type="line" smooth="yes"/>
      <point x="301" y="659"/>
      <point x="337" y="666"/>
      <point x="398" y="666" type="curve" smooth="yes"/>
      <point x="421" y="666" type="line"/>
    </contour>
  </outline>
</glyph>
<glyph name="M" format="2">
  <advance width="985"/>
  <unicode hex="004D"/>
  <anchor x="482" y="0" name="bottom"/>
  <outline>
    <contour>
      <point x="-25" y="0" type="line"/>
      <point x="202" y="0" type="line"/>
      <point x="215" y="44" type="line"/>
      <point x="211" y="44" type="line" smooth="yes"/>
      <point x="186" y="44"/>
      <point x="134" y="47"/>
      <point x="136" y="54" type="curve" smooth="yes"/>
      <point x="308" y="703" type="line"/>
      <point x="300" y="706" type="line"/>
      <point x="386" y="-2" type="line"/>
      <point x="430" y="-2" type="line"/>
      <point x="890" y="702" type="line"/>
      <point x="882" y="701" type="line"/>
      <point x="712" y="54" type="line" smooth="yes"/>
      <point x="710" y="47"/>
      <point x="658" y="44"/>
      <point x="628" y="44" type="curve" smooth="yes"/>
      <point x="618" y="44" type="line"/>
      <point x="606" y="0" type="line"/>
      <point x="848" y="0" type="line"/>
      <point x="860" y="44" type="line"/>
      <point x="848" y="44" type="line" smooth="yes"/>
      <point x="797" y="44"/>
      <point x="761" y="51"/>
      <point x="768" y="80" type="curve" smooth="yes"/>
      <point x="912" y="630" type="line" smooth="yes"/>
      <point x="919" y="659"/>
      <point x="959" y="666"/>
      <point x="1011" y="666" type="curve" smooth="yes"/>
      <point x="1023" y="666" type="line"/>
      <point x="1035" y="710" type="line"/>
      <point x="843" y="710" type="line"/>
      <point x="420" y="48" type="line"/>
      <point x="431" y="11" type="line"/>
      <point x="350" y="710" type="line"/>
      <point x="163" y="710" type="line"/>
      <point x="150" y="666" type="line"/>
      <point x="162" y="666" type="line" smooth="yes"/>
      <point x="214" y="666"/>
      <point x="250" y="659"/>
      <point x="243" y="630" type="curve" smooth="yes"/>
      <point x="99" y="80" type="line" smooth="yes"/>
      <point x="90" y="51"/>
      <point x="51" y="44"/>
      <point x="-1" y="44" type="curve" smooth="yes"/>
      <point x="-13" y="44" type="line"/>
    </contour>
  </outline>
</glyph>
<glyph name="N" format="2">
  <advance width="838"/>
  <unicode hex="004E"/>
  <anchor x="429" y="741" name="top"/>
  <anchor x="429" y="0" name="bottom"/>
  <outline>
    <contour>
      <point x="-25" y="0" type="line"/>
      <point x="225" y="0" type="line"/>
      <point x="237" y="44" type="line"/>
      <point x="222" y="44" type="line" smooth="yes"/>
      <point x="187" y="44"/>
      <point x="136" y="47"/>
      <point x="139" y="54" type="curve"/>
      <point x="305" y="686" type="line"/>
      <point x="289" y="691" type="line"/>
      <point x="542" y="0" type="line"/>
      <point x="598" y="0" type="line"/>
      <point x="765" y="630" type="line" smooth="yes"/>
      <point x="773" y="659"/>
      <point x="813" y="666"/>
      <point x="865" y="666" type="curve" smooth="yes"/>
      <point x="876" y="666" type="line"/>
      <point x="889" y="710" type="line"/>
      <point x="639" y="710" type="line"/>
      <point x="627" y="666" type="line"/>
      <point x="642" y="666" type="line" smooth="yes"/>
      <point x="677" y="666"/>
      <point x="727" y="663"/>
      <point x="725" y="656" type="curve" smooth="yes"/>
      <point x="566" y="47" type="line"/>
      <point x="573" y="44" type="line"/>
      <point x="334" y="710" type="line"/>
      <point x="164" y="710" type="line"/>
      <point x="152" y="666" type="line"/>
      <point x="163" y="666" type="line" smooth="yes"/>
      <point x="215" y="666"/>
      <point x="251" y="659"/>
      <point x="244" y="630" type="curve" smooth="yes"/>
      <point x="99" y="80" type="line" smooth="yes"/>
      <point x="91" y="51"/>
      <point x="51" y="44"/>
      <point x="-1" y="44" type="curve" smooth="yes"/>
      <point x="-13" y="44" type="line"/>
    </contour>
  </outline>
</glyph>
<glyph name="O" format="2">
  <advance width="813"/>
  <unicode hex="004F"/>
  <anchor x="407" y="741" name="top"/>
  <anchor x="407" y="0" name="bottom"/>
  <outline>
    <contour>
      <point x="787" y="473" type="curve" smooth="yes"/>
      <point x="787" y="651"/>
      <point x="667" y="735"/>
      <point x="493" y="735" type="curve" smooth="yes"/>
      <point x="188" y="735"/>
      <point x="61" y="456"/>
      <point x="61" y="238" type="curve" smooth="yes"/>
      <point x="61" y="59"/>
      <point x="181" y="-25"/>
      <point x="354" y="-25" type="curve" smooth="yes"/>
      <point x="660" y="-25"/>
      <point x="787" y="254"/>
    </contour>
    <contour>
      <point x="359" y="16" type="curve" smooth="yes"/>
      <point x="207" y="16"/>
      <point x="116" y="84"/>
      <point x="116" y="244" type="curve" smooth="yes"/>
      <point x="116" y="331"/>
      <point x="133" y="425"/>
      <point x="170" y="506" type="curve" smooth="yes"/>
      <point x="225" y="600"/>
      <point x="327" y="694"/>
      <point x="489" y="694" type="curve" smooth="yes"/>
      <point x="641" y="694"/>
      <point x="732" y="626"/>
      <point x="732" y="466" type="curve" smooth="yes"/>
      <point x="732" y="379"/>
      <point x="715" y="285"/>
      <point x="678" y="204" type="curve" smooth="yes"/>
      <point x="624" y="110"/>
      <point x="521" y="16"/>
    </contour>
  </outline>
</glyph>
<glyph name="T" format="2">
  <advance width="695"/>
  <unicode hex="0054"/>
  <anchor x="356" y="741" name="top"/>
  <anchor x="356" y="0" name="bottom"/>
  <outline>
    <contour>
      <point x="262" y="80" type="line" smooth="yes"/>
      <point x="255" y="51"/>
      <point x="209" y="44"/>
      <point x="157" y="44" type="curve" smooth="yes"/>
      <point x="136" y="44" type="line"/>
      <point x="124" y="0" type="line"/>
      <point x="406" y="0" type="line"/>
      <point x="419" y="44" type="line"/>
      <point x="398" y="44" type="line" smooth="yes"/>
      <point x="346" y="44"/>
      <point x="304" y="51"/>
      <point x="312" y="80" type="curve" smooth="yes"/>
      <point x="467" y="671" type="line"/>
      <point x="564" y="671" type="line" smooth="yes"/>
      <point x="654" y="671"/>
      <point x="680" y="658"/>
      <point x="672" y="609" type="curve" smooth="yes"/>
      <point x="652" y="492" type="line"/>
      <point x="697" y="492" type="line"/>
      <point x="756" y="710" type="line"/>
      <point x="148" y="710" type="line"/>
      <point x="90" y="492" type="line"/>
      <point x="134" y="492" type="line"/>
      <point x="179" y="609" type="line" smooth="yes"/>
      <point x="198" y="658"/>
      <point x="238" y="671"/>
      <point x="328" y="671" type="curve" smooth="yes"/>
      <point x="418" y="671" type="line"/>
    </contour>
  </outline>
</glyph>
<glyph name="U" format="2">
  <advance width="823"/>
  <unicode hex="0055"/>
  <anchor x="421" y="741" name="top"/>
  <anchor x="474" y="0" name="right"/>
  <anchor x="421" y="0" name="bottom"/>
  <outline>
    <contour>
      <point x="200" y="321" type="curve" smooth="yes"/>
      <point x="286" y="656" type="line" smooth="yes"/>
      <point x="288" y="663"/>
      <point x="341" y="666"/>
      <point x="381" y="666" type="curve" smooth="yes"/>
      <point x="390" y="666" type="line"/>
      <point x="403" y="710" type="line"/>
      <point x="150" y="710" type="line"/>
      <point x="137" y="666" type="line"/>
      <point x="149" y="666" type="line" smooth="yes"/>
      <point x="201" y="666"/>
      <point x="237" y="659"/>
      <point x="229" y="630" type="curve" smooth="yes"/>
      <point x="151" y="324" type="line" smooth="yes"/>
      <point x="130" y="245"/>
      <point x="125" y="200"/>
      <point x="125" y="168" type="curve" smooth="yes"/>
      <point x="125" y="39"/>
      <point x="205" y="-25"/>
      <point x="366" y="-25" type="curve" smooth="yes"/>
      <point x="515" y="-25"/>
      <point x="608" y="44"/>
      <point x="655" y="214" type="curve" smooth="yes"/>
      <point x="761" y="621" type="line" smooth="yes"/>
      <point x="770" y="655"/>
      <point x="810" y="666"/>
      <point x="862" y="666" type="curve" smooth="yes"/>
      <point x="874" y="666" type="line"/>
      <point x="886" y="710" type="line"/>
      <point x="641" y="710" type="line"/>
      <point x="629" y="666" type="line"/>
      <point x="638" y="666" type="line" smooth="yes"/>
      <point x="679" y="666"/>
      <point x="728" y="659"/>
      <point x="725" y="647" type="curve" smooth="yes"/>
      <point x="615" y="221" type="line" smooth="yes"/>
      <point x="576" y="73"/>
      <point x="510" y="15"/>
      <point x="367" y="15" type="curve" smooth="yes"/>
      <point x="246" y="15"/>
      <point x="174" y="54"/>
      <point x="174" y="171" type="curve" smooth="yes"/>
      <point x="174" y="207"/>
      <point x="179" y="245"/>
    </contour>
  </outline>
</glyph>
<glyph name="V" format="2">
  <advance width="733"/>
  <unicode hex="0056"/>
  <outline>
    <contour>
      <point x="294" y="-12" type="line"/>
      <point x="236" y="655" type="line"/>
      <point x="238" y="662"/>
      <point x="276" y="666"/>
      <point x="335" y="666" type="curve" smooth="yes"/>
      <point x="345" y="666" type="line"/>
      <point x="358" y="710" type="line"/>
      <point x="123" y="710" type="line"/>
      <point x="110" y="666" type="line"/>
      <point x="116" y="666" type="line" smooth="yes"/>
      <point x="160" y="666"/>
      <point x="186" y="655"/>
      <point x="191" y="602" type="curve" smooth="yes"/>
      <point x="245" y="-12" type="line"/>
      <point x="328" y="-12" type="line"/>
      <point x="704" y="602" type="line" smooth="yes"/>
      <point x="737" y="655"/>
      <point x="769" y="666"/>
      <point x="812" y="666" type="curve" smooth="yes"/>
      <point x="819" y="666" type="line"/>
      <point x="831" y="710" type="line"/>
      <point x="590" y="710" type="line"/>
      <point x="578" y="666" type="line"/>
      <point x="589" y="666" type="line" smooth="yes"/>
      <point x="648" y="666"/>
      <point x="682" y="656"/>
      <point x="678" y="643" type="curve"/>
      <point x="278" y="-18" type="line"/>
    </contour>
  </outline>
</glyph>
<glyph name="asciicircum" format="2">
  <advance width="575"/>
  <unicode hex="005E"/>
  <outline>
    <contour>
      <point x="110" y="314" type="line"/>
      <point x="372" y="684" type="line"/>
      <point x="374" y="710" type="line"/>
      <point x="340" y="710" type="line"/>
      <point x="54" y="314" type="line"/>
    </contour>
    <contour>
      <point x="433" y="314" type="line"/>
      <point x="487" y="314" type="line"/>
      <point x="408" y="710" type="line"/>
      <point x="364" y="710" type="line"/>
      <point x="365" y="685" type="line"/>
    </contour>
  </outline>
</glyph>
<glyph name="l" format="2">
  <advance width="349"/>
  <unicode hex="006C"/>
  <anchor x="184" y="746" name="top"/>
  <anchor x="298" y="735" name="right"/>
  <anchor x="358" y="391" name="mid"/>
  <anchor x="188" y="0" name="bottom"/>
  <outline>
    <contour>
      <point x="159" y="127" type="curve" smooth="yes"/>
      <point x="321" y="780" type="line"/>
      <point x="175" y="780" type="line"/>
      <point x="166" y="744" type="line"/>
      <point x="175" y="742" type="line" smooth="yes"/>
      <point x="229" y="731"/>
      <point x="254" y="724"/>
      <point x="250" y="705" type="curve" smooth="yes"/>
      <point x="118" y="161" type="line" smooth="yes"/>
      <point x="103" y="119"/>
      <point x="94" y="83"/>
      <point x="94" y="54" type="curve" smooth="yes"/>
      <point x="94" y="19"/>
      <point x="122" y="0"/>
      <point x="164" y="0" type="curve" smooth="yes"/>
      <point x="196" y="0"/>
      <point x="229" y="0"/>
      <point x="261" y="0" type="curve"/>
      <point x="269" y="40" type="line"/>
      <point x="239" y="40"/>
      <point x="210" y="40"/>
      <point x="180" y="40" type="curve" smooth="yes"/>
      <point x="158" y="40"/>
      <point x="144" y="48"/>
      <point x="144" y="67" type="curve" smooth="yes"/>
      <point x="144" y="80"/>
      <point x="145" y="89"/>
    </contour>
  </outline>
</glyph>
<glyph name="n" format="2">
  <advance width="686"/>
  <unicode hex="006E"/>
  <anchor x="341" y="565" name="top"/>
  <anchor x="349" y="0" name="bottom"/>
  <outline>
    <contour>
      <point x="64" y="0" type="line"/>
      <point x="186" y="465" type="line" smooth="yes"/>
      <point x="193" y="490"/>
      <point x="153" y="516"/>
      <point x="99" y="526" type="curve" smooth="yes"/>
      <point x="88" y="528" type="line"/>
      <point x="100" y="565" type="line"/>
      <point x="234" y="565" type="line"/>
      <point x="216" y="390" type="line"/>
      <point x="216" y="382" type="line"/>
      <point x="116" y="0" type="line"/>
    </contour>
    <contour>
      <point x="510" y="126" type="line" smooth="yes"/>
      <point x="495" y="88"/>
      <point x="494" y="80"/>
      <point x="494" y="67" type="curve" smooth="yes"/>
      <point x="494" y="48"/>
      <point x="508" y="40"/>
      <point x="530" y="40" type="curve" smooth="yes"/>
      <point x="559" y="40"/>
      <point x="589" y="40"/>
      <point x="618" y="40" type="curve"/>
      <point x="610" y="0" type="line"/>
      <point x="576" y="0"/>
      <point x="544" y="0"/>
      <point x="511" y="0" type="curve" smooth="yes"/>
      <point x="469" y="0"/>
      <point x="439" y="16"/>
      <point x="439" y="51" type="curve" smooth="yes"/>
      <point x="439" y="82"/>
      <point x="451" y="117"/>
      <point x="468" y="160" type="curve" smooth="yes"/>
      <point x="530" y="384" type="line" smooth="yes"/>
      <point x="543" y="432"/>
      <point x="549" y="462"/>
      <point x="549" y="486" type="curve" smooth="yes"/>
      <point x="549" y="518"/>
      <point x="530" y="532"/>
      <point x="478" y="532" type="curve" smooth="yes"/>
      <point x="393" y="532"/>
      <point x="310" y="465"/>
      <point x="198" y="345" type="curve"/>
      <point x="185" y="367" type="line"/>
      <point x="292" y="483"/>
      <point x="388" y="575"/>
      <point x="493" y="575" type="curve" smooth="yes"/>
      <point x="575" y="575"/>
      <point x="602" y="544"/>
      <point x="602" y="500" type="curve" smooth="yes"/>
      <point x="602" y="470"/>
      <point x="594" y="432"/>
      <point x="580" y="381" type="curve" smooth="yes"/>
    </contour>
  </outline>
</glyph>
<glyph name="o" format="2">
  <advance width="641"/>
  <unicode hex="006F"/>
  <anchor x="320" y="565" name="top"/>
  <anchor x="423" y="0" name="right"/>
  <anchor x="320" y="0" name="bottom"/>
  <outline>
    <contour>
      <point x="46" y="209" type="curve" smooth="yes"/>
      <point x="46" y="73"/>
      <point x="130" y="-13"/>
      <point x="280" y="-13" type="curve" smooth="yes"/>
      <point x="516" y="-13"/>
      <point x="594" y="215"/>
      <point x="594" y="353" type="curve" smooth="yes"/>
      <point x="594" y="489"/>
      <point x="510" y="575"/>
      <point x="360" y="575" type="curve" smooth="yes"/>
      <point x="125" y="575"/>
      <point x="46" y="347"/>
    </contour>
    <contour>
      <point x="487" y="134" type="curve" smooth="yes"/>
      <point x="448" y="73"/>
      <point x="385" y="28"/>
      <point x="284" y="28" type="curve" smooth="yes"/>
      <point x="159" y="28"/>
      <point x="102" y="83"/>
      <point x="102" y="212" type="curve" smooth="yes"/>
      <point x="102" y="277"/>
      <point x="116" y="361"/>
      <point x="154" y="428" type="curve" smooth="yes"/>
      <point x="192" y="489"/>
      <point x="256" y="534"/>
      <point x="357" y="534" type="curve" smooth="yes"/>
      <point x="481" y="534"/>
      <point x="539" y="479"/>
      <point x="539" y="350" type="curve" smooth="yes"/>
      <point x="539" y="285"/>
      <point x="525" y="201"/>
    </contour>
  </outline>
</glyph>
<glyph name="q" format="2">
  <advance width="659"/>
  <unicode hex="0071"/>
  <outline>
    <contour>
      <point x="258" y="-223" type="line"/>
      <point x="511" y="-223" type="line"/>
      <point x="520" y="-186" type="line"/>
      <point x="516" y="-186" type="line" smooth="yes"/>
      <point x="460" y="-186"/>
      <point x="434" y="-170"/>
      <point x="449" y="-110" type="curve" smooth="yes"/>
      <point x="632" y="579" type="line"/>
      <point x="603" y="579" type="line"/>
      <point x="539" y="416" type="line"/>
      <point x="533" y="392" type="line"/>
      <point x="382" y="-176" type="line" smooth="yes"/>
      <point x="379" y="-183"/>
      <point x="326" y="-186"/>
      <point x="293" y="-186" type="curve" smooth="yes"/>
      <point x="267" y="-186" type="line"/>
    </contour>
    <contour>
      <point x="46" y="194" type="curve" smooth="yes"/>
      <point x="46" y="62"/>
      <point x="114" y="-10"/>
      <point x="230" y="-10" type="curve" smooth="yes"/>
      <point x="316" y="-10"/>
      <point x="395" y="46"/>
      <point x="478" y="130" type="curve"/>
      <point x="484" y="174" type="line"/>
      <point x="405" y="100"/>
      <point x="322" y="30"/>
      <point x="230" y="30" type="curve" smooth="yes"/>
      <point x="153" y="30"/>
      <point x="102" y="82"/>
      <point x="102" y="194" type="curve" smooth="yes"/>
      <point x="102" y="325"/>
      <point x="160" y="538"/>
      <point x="338" y="538" type="curve" smooth="yes"/>
      <point x="444" y="538"/>
      <point x="506" y="461"/>
      <point x="532" y="364" type="curve"/>
      <point x="551" y="396" type="line"/>
      <point x="520" y="515"/>
      <point x="446" y="578"/>
      <point x="341" y="578" type="curve" smooth="yes"/>
      <point x="138" y="578"/>
      <point x="46" y="359"/>
    </contour>
  </outline>
</glyph>
<glyph name="t" format="2">
  <advance width="462"/>
  <unicode hex="0074"/>
  <anchor x="198" y="675" name="top"/>
  <anchor x="357" y="681" name="right"/>
  <anchor x="301" y="0" name="bottom"/>
  <outline>
    <contour>
      <point x="211" y="0" type="curve" smooth="yes"/>
      <point x="256" y="0"/>
      <point x="313" y="0"/>
      <point x="339" y="0" type="curve"/>
      <point x="350" y="39" type="line"/>
      <point x="347" y="39"/>
      <point x="294" y="39"/>
      <point x="219" y="39" type="curve" smooth="yes"/>
      <point x="178" y="39"/>
      <point x="157" y="53"/>
      <point x="157" y="82" type="curve" smooth="yes"/>
      <point x="157" y="94"/>
      <point x="158" y="104"/>
      <point x="167" y="146" type="curve" smooth="yes"/>
      <point x="315" y="735" type="line"/>
      <point x="270" y="735" type="line"/>
      <point x="245" y="641" type="line" smooth="yes"/>
      <point x="226" y="569"/>
      <point x="186" y="560"/>
      <point x="112" y="560" type="curve" smooth="yes"/>
      <point x="97" y="560" type="line"/>
      <point x="87" y="527" type="line"/>
      <point x="454" y="527" type="line"/>
      <point x="466" y="565" type="line"/>
      <point x="255" y="565" type="line"/>
      <point x="219" y="552" type="line"/>
      <point x="117" y="131" type="line" smooth="yes"/>
      <point x="108" y="97"/>
      <point x="105" y="88"/>
      <point x="105" y="74" type="curve" smooth="yes"/>
      <point x="105" y="19"/>
      <point x="148" y="0"/>
    </contour>
  </outline>
</glyph>
<glyph name="u" format="2">
  <advance width="659"/>
  <unicode hex="0075"/>
  <anchor x="311" y="565" name="top"/>
  <anchor x="473" y="0" name="right"/>
  <anchor x="308" y="0" name="bottom"/>
  <outline>
    <contour>
      <point x="162" y="180" type="curve" smooth="yes"/>
      <point x="264" y="565" type="line"/>
      <point x="115" y="565" type="line"/>
      <point x="106" y="529" type="line"/>
      <point x="116" y="527" type="line" smooth="yes"/>
      <point x="170" y="517"/>
      <point x="197" y="509"/>
      <point x="192" y="490" type="curve" smooth="yes"/>
      <point x="112" y="183" type="line" smooth="yes"/>
      <point x="99" y="132"/>
      <point x="91" y="98"/>
      <point x="91" y="67" type="curve" smooth="yes"/>
      <point x="91" y="24"/>
      <point x="117" y="-11"/>
      <point x="192" y="-11" type="curve" smooth="yes"/>
      <point x="306" y="-11"/>
      <point x="384" y="81"/>
      <point x="484" y="200" type="curve"/>
      <point x="470" y="224" type="line"/>
      <point x="366" y="100"/>
      <point x="300" y="33"/>
      <point x="212" y="33" type="curve" smooth="yes"/>
      <point x="161" y="33"/>
      <point x="144" y="49"/>
      <point x="144" y="81" type="curve" smooth="yes"/>
      <point x="144" y="106"/>
      <point x="150" y="133"/>
    </contour>
    <contour>
      <point x="508" y="0" type="curve" smooth="yes"/>
      <point x="537" y="0"/>
      <point x="567" y="0"/>
      <point x="595" y="0" type="curve"/>
      <point x="603" y="40" type="line"/>
      <point x="573" y="40"/>
      <point x="542" y="40"/>
      <point x="512" y="40" type="curve" smooth="yes"/>
      <point x="490" y="40"/>
      <point x="479" y="46"/>
      <point x="479" y="66" type="curve" smooth="yes"/>
      <point x="479" y="80"/>
      <point x="488" y="132"/>
      <point x="519" y="249" type="curve" smooth="yes"/>
      <point x="603" y="565" type="line"/>
      <point x="552" y="565" type="line"/>
      <point x="452" y="195" type="line"/>
      <point x="450" y="179" type="line"/>
      <point x="436" y="86"/>
      <point x="433" y="61"/>
      <point x="433" y="52" type="curve" smooth="yes"/>
      <point x="433" y="16"/>
      <point x="465" y="0"/>
    </contour>
  </outline>
</glyph>
<glyph name="v" format="2">
  <advance width="648"/>
  <unicode hex="0076"/>
  <outline>
    <contour>
      <point x="212" y="565" type="line"/>
      <point x="268" y="-10" type="line"/>
      <point x="259" y="5" type="line"/>
      <point x="362" y="192"/>
      <point x="464" y="378"/>
      <point x="567" y="565" type="curve"/>
      <point x="626" y="565" type="line"/>
      <point x="626" y="559" type="line"/>
      <point x="513" y="367"/>
      <point x="399" y="175"/>
      <point x="286" y="-17" type="curve"/>
      <point x="219" y="-17" type="line"/>
      <point x="172" y="468" type="line" smooth="yes"/>
      <point x="170" y="496"/>
      <point x="132" y="516"/>
      <point x="77" y="526" type="curve" smooth="yes"/>
      <point x="67" y="528" type="line"/>
      <point x="78" y="565" type="line"/>
    </contour>
  </outline>
</glyph>
<glyph name="y" format="2">
  <advance width="626"/>
  <unicode hex="0079"/>
  <anchor x="313" y="565" name="top"/>
  <anchor x="322" y="-211" name="bottom"/>
  <outline>
    <contour>
      <point x="224" y="-58" type="line"/>
      <point x="158" y="468" type="line" smooth="yes"/>
      <point x="154" y="496"/>
      <point x="120" y="516"/>
      <point x="66" y="526" type="curve" smooth="yes"/>
      <point x="55" y="528" type="line"/>
      <point x="67" y="565" type="line"/>
      <point x="196" y="565" type="line"/>
      <point x="266" y="-6" type="line"/>
      <point x="240" y="6" type="line"/>
    </contour>
    <contour>
      <point x="252" y="19" type="line"/>
      <point x="347" y="194"/>
      <point x="450" y="391"/>
      <point x="544" y="565" type="curve"/>
      <point x="604" y="565" type="line"/>
      <point x="604" y="559" type="line"/>
      <point x="493" y="367"/>
      <point x="389" y="188"/>
      <point x="279" y="0" type="curve" smooth="yes"/>
      <point x="180" y="-160"/>
      <point x="106" y="-232"/>
      <point x="0" y="-232" type="curve" smooth="yes"/>
      <point x="-45" y="-232"/>
      <point x="-87" y="-220"/>
      <point x="-103" y="-209" type="curve"/>
      <point x="-91" y="-171" type="line"/>
      <point x="-77" y="-179"/>
      <point x="-43" y="-194"/>
      <point x="8" y="-194" type="curve" smooth="yes"/>
      <point x="106" y="-194"/>
      <point x="156" y="-115"/>
      <point x="240" y="15" type="curve"/>
    </contour>
  </outline>
</glyph>
<glyph name="z" format="2">
  <advance width="609"/>
  <unicode hex="007A"/>
  <anchor x="310" y="565" name="top"/>
  <anchor x="333" y="0" name="bottom"/>
  <outline>
    <contour>
      <point x="391" y="-13" type="curve" smooth="yes"/>
      <point x="483" y="-13"/>
      <point x="555" y="53"/>
      <point x="550" y="205" type="curve"/>
      <point x="523" y="213" type="line"/>
      <point x="506" y="71"/>
      <point x="467" y="32"/>
      <point x="386" y="32" type="curve" smooth="yes"/>
      <point x="301" y="32"/>
      <point x="252" y="100"/>
      <point x="191" y="161" type="curve"/>
      <point x="163" y="142" type="line"/>
      <point x="244" y="58"/>
      <point x="300" y="-13"/>
    </contour>
    <contour>
      <point x="54" y="0" type="line"/>
      <point x="552" y="516" type="line"/>
      <point x="566" y="565" type="line"/>
      <point x="138" y="565" type="line"/>
      <point x="93" y="394" type="line"/>
      <point x="133" y="394" type="line"/>
      <point x="165" y="482" type="line" smooth="yes"/>
      <point x="179" y="520"/>
      <point x="216" y="525"/>
      <point x="294" y="525" type="curve" smooth="yes"/>
      <point x="524" y="525" type="line"/>
      <point x="509" y="532" type="line"/>
      <point x="25" y="25" type="line"/>
      <point x="15" y="0" type="line"/>
    </contour>
  </outline>
</glyph>
<glyph name="braceleft" format="2">
  <advance width="433"/>
  <unicode hex="007B"/>
  <outline>
    <contour>
      <point x="304" y="251" type="curve" smooth="yes"/>
      <point x="304" y="276"/>
      <point x="272" y="277"/>
      <point x="129" y="306" type="curve"/>
      <point x="132" y="318" type="line"/>
      <point x="311" y="345"/>
      <point x="336" y="340"/>
      <point x="336" y="375" type="curve" smooth="yes"/>
      <point x="336" y="421"/>
      <point x="254" y="517"/>
      <point x="254" y="605" type="curve" smooth="yes"/>
      <point x="254" y="682"/>
      <point x="308" y="718"/>
      <point x="416" y="718" type="curve" smooth="yes"/>
      <point x="439" y="718"/>
      <point x="461" y="718"/>
      <point x="488" y="717" type="curve"/>
      <point x="482" y="745" type="line"/>
      <point x="453" y="747"/>
      <point x="427" y="749"/>
      <point x="400" y="749" type="curve" smooth="yes"/>
      <point x="288" y="749"/>
      <point x="201" y="713"/>
      <point x="201" y="603" type="curve" smooth="yes"/>
      <point x="201" y="523"/>
      <point x="264" y="441"/>
      <point x="294" y="366" type="curve"/>
      <point x="304" y="371" type="line"/>
      <point x="97" y="335" type="line"/>
      <point x="86" y="298" type="line"/>
      <point x="270" y="244" type="line"/>
      <point x="271" y="256" type="line"/>
      <point x="181" y="169"/>
      <point x="38" y="75"/>
      <point x="38" y="-21" type="curve" smooth="yes"/>
      <point x="38" y="-106"/>
      <point x="105" y="-145"/>
      <point x="204" y="-145" type="curve" smooth="yes"/>
      <point x="222" y="-145"/>
      <point x="246" y="-145"/>
      <point x="266" y="-144" type="curve"/>
      <point x="288" y="-114" type="line"/>
      <point x="268" y="-116"/>
      <point x="244" y="-115"/>
      <point x="229" y="-115" type="curve" smooth="yes"/>
      <point x="132" y="-115"/>
      <point x="91" y="-85"/>
      <point x="91" y="-23" type="curve" smooth="yes"/>
      <point x="91" y="93"/>
      <point x="304" y="203"/>
    </contour>
  </outline>
</glyph>
<glyph name="sterling" format="2">
  <advance width="594"/>
  <unicode hex="00A3"/>
  <outline>
    <contour>
      <point x="386" y="701" type="curve" smooth="yes"/>
      <point x="458" y="701"/>
      <point x="511" y="689"/>
      <point x="563" y="651" type="curve"/>
      <point x="553" y="664"/>
      <point x="557" y="691"/>
      <point x="534" y="706" type="curve"/>
      <point x="493" y="549" type="line"/>
      <point x="541" y="549" type="line"/>
      <point x="579" y="689" type="line"/>
      <point x="565" y="700"/>
      <point x="501" y="735"/>
      <point x="389" y="735" type="curve" smooth="yes"/>
      <point x="245" y="735"/>
      <point x="149" y="663"/>
      <point x="149" y="526" type="curve" smooth="yes"/>
      <point x="149" y="445"/>
      <point x="187" y="367"/>
      <point x="187" y="272" type="curve" smooth="yes"/>
      <point x="187" y="161"/>
      <point x="107" y="79"/>
      <point x="-28" y="30" type="curve"/>
      <point x="-40" y="-9" type="line"/>
      <point x="134" y="48"/>
      <point x="234" y="140"/>
      <point x="234" y="289" type="curve" smooth="yes"/>
      <point x="234" y="370"/>
      <point x="201" y="460"/>
      <point x="201" y="535" type="curve" smooth="yes"/>
      <point x="201" y="645"/>
      <point x="272" y="701"/>
    </contour>
    <contour>
      <point x="44" y="366" type="line"/>
      <point x="34" y="332" type="line"/>
      <point x="442" y="332" type="line"/>
      <point x="451" y="366" type="line"/>
    </contour>
    <contour>
      <point x="353" y="-10" type="curve" smooth="yes"/>
      <point x="444" y="-10"/>
      <point x="489" y="37"/>
      <point x="533" y="166" type="curve"/>
      <point x="492" y="179" type="line"/>
      <point x="454" y="79"/>
      <point x="423" y="38"/>
      <point x="360" y="38" type="curve" smooth="yes"/>
      <point x="286" y="38"/>
      <point x="251" y="84"/>
      <point x="187" y="161" type="curve"/>
      <point x="163" y="124" type="line"/>
      <point x="235" y="40"/>
      <point x="259" y="-10"/>
    </contour>
  </outline>
</glyph>
<glyph name="currency" format="2">
  <advance width="592"/>
  <unicode hex="00A4"/>
  <outline>
    <contour>
      <point x="14" y="126" type="line"/>
      <point x="175" y="253" type="line"/>
      <point x="137" y="280" type="line"/>
      <point x="-17" y="161" type="line"/>
    </contour>
    <contour>
      <point x="92" y="597" type="line"/>
      <point x="178" y="483" type="line"/>
      <point x="225" y="506" type="line"/>
      <point x="135" y="627" type="line"/>
    </contour>
    <contour>
      <point x="284" y="225" type="curve" smooth="yes"/>
      <point x="197" y="225"/>
      <point x="151" y="283"/>
      <point x="151" y="350" type="curve" smooth="yes"/>
      <point x="151" y="438"/>
      <point x="214" y="522"/>
      <point x="314" y="522" type="curve" smooth="yes"/>
      <point x="402" y="522"/>
      <point x="448" y="464"/>
      <point x="448" y="397" type="curve" smooth="yes"/>
      <point x="448" y="309"/>
      <point x="385" y="225"/>
    </contour>
    <contour>
      <point x="282" y="183" type="curve" smooth="yes"/>
      <point x="398" y="183"/>
      <point x="507" y="288"/>
      <point x="507" y="389" type="curve" smooth="yes"/>
      <point x="507" y="487"/>
      <point x="422" y="564"/>
      <point x="316" y="564" type="curve" smooth="yes"/>
      <point x="199" y="564"/>
      <point x="91" y="459"/>
      <point x="91" y="358" type="curve" smooth="yes"/>
      <point x="91" y="261"/>
      <point x="176" y="183"/>
    </contour>
    <contour>
      <point x="461" y="119" type="line"/>
      <point x="504" y="149" type="line"/>
      <point x="419" y="263" type="line"/>
      <point x="371" y="240" type="line"/>
    </contour>
    <contour>
      <point x="617" y="582" type="line"/>
      <point x="586" y="617" type="line"/>
      <point x="425" y="504" type="line"/>
      <point x="464" y="477" type="line"/>
    </contour>
  </outline>
</glyph>
<glyph name="yen" format="2">
  <advance width="594"/>
  <unicode hex="00A5"/>
  <outline>
    <contour>
      <point x="36" y="211" type="line"/>
      <point x="26" y="176" type="line"/>
      <point x="482" y="176" type="line"/>
      <point x="492" y="211" type="line"/>
    </contour>
    <contour>
      <point x="78" y="364" type="line"/>
      <point x="68" y="329" type="line"/>
      <point x="524" y="329" type="line"/>
      <point x="534" y="364" type="line"/>
    </contour>
    <contour>
      <point x="284" y="375" type="line"/>
      <point x="205" y="72" type="line" smooth="yes"/>
      <point x="197" y="43"/>
      <point x="156" y="36"/>
      <point x="102" y="36" type="curve" smooth="yes"/>
      <point x="78" y="36" type="line"/>
      <point x="67" y="0" type="line"/>
      <point x="349" y="0" type="line"/>
      <point x="360" y="36" type="line"/>
      <point x="336" y="36" type="line" smooth="yes"/>
      <point x="281" y="36"/>
      <point x="244" y="43"/>
      <point x="252" y="72" type="curve" smooth="yes"/>
      <point x="331" y="375" type="line"/>
    </contour>
    <contour>
      <point x="313" y="325" type="line"/>
      <point x="557" y="627" type="line" smooth="yes"/>
      <point x="586" y="660"/>
      <point x="610" y="674"/>
      <point x="638" y="674" type="curve" smooth="yes"/>
      <point x="646" y="674" type="line"/>
      <point x="657" y="710" type="line"/>
      <point x="474" y="710" type="line"/>
      <point x="463" y="674" type="line"/>
      <point x="470" y="674" type="line" smooth="yes"/>
      <point x="501" y="674"/>
      <point x="532" y="664"/>
      <point x="528" y="651" type="curve"/>
      <point x="300" y="367" type="line"/>
      <point x="310" y="376" type="line"/>
      <point x="222" y="663" type="line"/>
      <point x="225" y="670"/>
      <point x="254" y="674"/>
      <point x="286" y="674" type="curve" smooth="yes"/>
      <point x="299" y="674" type="line"/>
      <point x="310" y="710" type="line"/>
      <point x="127" y="710" type="line"/>
      <point x="116" y="674" type="line"/>
      <point x="124" y="674" type="line" smooth="yes"/>
      <point x="154" y="674"/>
      <point x="170" y="669"/>
      <point x="179" y="640" type="curve" smooth="yes"/>
      <point x="276" y="326" type="line"/>
    </contour>
  </outline>
</glyph>
<glyph name="ordfeminine" format="2">
  <advance width="530"/>
  <unicode hex="00AA"/>
  <outline>
    <contour>
      <point x="416" y="319" type="curve" smooth="yes"/>
      <point x="441" y="319"/>
      <point x="464" y="319"/>
      <point x="489" y="319" type="curve"/>
      <point x="494" y="344" type="line"/>
      <point x="472" y="344"/>
      <point x="450" y="344"/>
      <point x="429" y="344" type="curve" smooth="yes"/>
      <point x="413" y="344"/>
      <point x="405" y="348"/>
      <point x="405" y="364" type="curve" smooth="yes"/>
      <point x="405" y="374"/>
      <point x="411" y="413"/>
      <point x="434" y="496" type="curve" smooth="yes"/>
      <point x="494" y="723" type="line"/>
      <point x="459" y="723" type="line"/>
      <point x="414" y="605" type="line"/>
      <point x="410" y="599" type="line"/>
      <point x="371" y="451" type="line"/>
      <point x="371" y="442" type="line"/>
      <point x="367" y="402"/>
      <point x="363" y="365"/>
      <point x="363" y="356" type="curve" smooth="yes"/>
      <point x="363" y="330"/>
      <point x="386" y="319"/>
    </contour>
    <contour>
      <point x="205" y="310" type="curve" smooth="yes"/>
      <point x="279" y="310"/>
      <point x="344" y="375"/>
      <point x="393" y="460" type="curve"/>
      <point x="390" y="488" type="line"/>
      <point x="327" y="394"/>
      <point x="283" y="346"/>
      <point x="213" y="346" type="curve" smooth="yes"/>
      <point x="157" y="346"/>
      <point x="134" y="377"/>
      <point x="134" y="449" type="curve" smooth="yes"/>
      <point x="134" y="544"/>
      <point x="194" y="694"/>
      <point x="305" y="694" type="curve" smooth="yes"/>
      <point x="373" y="694"/>
      <point x="395" y="644"/>
      <point x="418" y="560" type="curve"/>
      <point x="434" y="586" type="line"/>
      <point x="418" y="666"/>
      <point x="390" y="730"/>
      <point x="306" y="730" type="curve" smooth="yes"/>
      <point x="165" y="730"/>
      <point x="84" y="564"/>
      <point x="84" y="446" type="curve" smooth="yes"/>
      <point x="84" y="357"/>
      <point x="121" y="310"/>
    </contour>
  </outline>
</glyph>
<glyph name="logicalnot" format="2">
  <advance width="594"/>
  <unicode hex="00AC"/>
  <outline>
    <contour>
      <point x="471" y="389" type="line"/>
      <point x="410" y="158" type="line"/>
      <point x="461" y="158" type="line"/>
      <point x="529" y="413" type="line"/>
      <point x="96" y="413" type="line"/>
      <point x="84" y="370" type="line"/>
      <point x="495" y="370" type="line"/>
    </contour>
  </outline>
</glyph>
<glyph name="Eth" format="2">
  <advance width="786"/>
  <unicode hex="00D0"/>
  <outline>
    <contour>
      <point x="50" y="342" type="line"/>
      <point x="424" y="342" type="line"/>
      <point x="434" y="381" type="line"/>
      <point x="60" y="381" type="line"/>
    </contour>
    <component base="D"/>
  </outline>
</glyph>
<glyph name="divide" format="2">
  <advance width="594"/>
  <unicode hex="00F7"/>
  <outline>
    <contour>
      <point x="440" y="591" type="curve" smooth="yes"/>
      <point x="440" y="630"/>
      <point x="410" y="654"/>
      <point x="365" y="654" type="curve" smooth="yes"/>
      <point x="322" y="654"/>
      <point x="293" y="630"/>
      <point x="293" y="591" type="curve" smooth="yes"/>
      <point x="293" y="553"/>
      <point x="322" y="528"/>
      <point x="365" y="528" type="curve" smooth="yes"/>
      <point x="410" y="528"/>
      <point x="440" y="553"/>
    </contour>
    <contour>
      <point x="306" y="91" type="curve" smooth="yes"/>
      <point x="306" y="130"/>
      <point x="276" y="154"/>
      <point x="231" y="154" type="curve" smooth="yes"/>
      <point x="189" y="154"/>
      <point x="159" y="130"/>
      <point x="159" y="91" type="curve" smooth="yes"/>
      <point x="159" y="53"/>
      <point x="189" y="28"/>
      <point x="231" y="28" type="curve" smooth="yes"/>
      <point x="276" y="28"/>
      <point x="306" y="53"/>
    </contour>
    <component base="minus"/>
  </outline>
</glyph>
<glyph name="thorn" format="2">
  <advance width="695"/>
  <unicode hex="00FE"/>
  <outline>
    <contour>
      <point x="-87" y="-223" type="line"/>
      <point x="179" y="-223" type="line"/>
      <point x="188" y="-186" type="line"/>
      <point x="166" y="-186" type="line" smooth="yes"/>
      <point x="108" y="-186"/>
      <point x="70" y="-183"/>
      <point x="72" y="-176" type="curve" smooth="yes"/>
      <point x="322" y="780" type="line"/>
      <point x="175" y="780" type="line"/>
      <point x="166" y="744" type="line"/>
      <point x="176" y="742" type="line" smooth="yes"/>
      <point x="230" y="731"/>
      <point x="256" y="724"/>
      <point x="250" y="705" type="curve"/>
      <point x="39" y="-110" type="line"/>
      <point x="23" y="-169"/>
      <point x="-14" y="-186"/>
      <point x="-74" y="-186" type="curve" smooth="yes"/>
      <point x="-78" y="-186" type="line"/>
    </contour>
    <contour>
      <point x="354" y="-12" type="curve" smooth="yes"/>
      <point x="557" y="-12"/>
      <point x="648" y="207"/>
      <point x="648" y="372" type="curve" smooth="yes"/>
      <point x="648" y="504"/>
      <point x="581" y="576"/>
      <point x="465" y="576" type="curve" smooth="yes"/>
      <point x="379" y="576"/>
      <point x="300" y="519"/>
      <point x="216" y="435" type="curve"/>
      <point x="210" y="391" type="line"/>
      <point x="289" y="465"/>
      <point x="373" y="536"/>
      <point x="465" y="536" type="curve" smooth="yes"/>
      <point x="541" y="536"/>
      <point x="593" y="484"/>
      <point x="593" y="372" type="curve" smooth="yes"/>
      <point x="593" y="241"/>
      <point x="535" y="28"/>
      <point x="357" y="28" type="curve" smooth="yes"/>
      <point x="250" y="28"/>
      <point x="188" y="105"/>
      <point x="163" y="201" type="curve"/>
      <point x="144" y="169" type="line"/>
      <point x="175" y="50"/>
      <point x="248" y="-12"/>
    </contour>
  </outline>
</glyph>
<glyph name="dcroat" format="2">
  <advance width="683"/>
  <unicode hex="0111"/>
  <outline>
    <contour>
      <point x="230" y="-10" type="curve" smooth="yes"/>
      <point x="316" y="-10"/>
      <point x="395" y="46"/>
      <point x="478" y="130" type="curve"/>
      <point x="484" y="174" type="line"/>
      <point x="405" y="100"/>
      <point x="322" y="30"/>
      <point x="230" y="30" type="curve" smooth="yes"/>
      <point x="153" y="30"/>
      <point x="102" y="82"/>
      <point x="102" y="194" type="curve" smooth="yes"/>
      <point x="102" y="325"/>
      <point x="160" y="538"/>
      <point x="338" y="538" type="curve" smooth="yes"/>
      <point x="444" y="538"/>
      <point x="506" y="461"/>
      <point x="532" y="364" type="curve"/>
      <point x="551" y="396" type="line"/>
      <point x="520" y="515"/>
      <point x="446" y="578"/>
      <point x="341" y="578" type="curve" smooth="yes"/>
      <point x="138" y="578"/>
      <point x="46" y="359"/>
      <point x="46" y="194" type="curve" smooth="yes"/>
      <point x="46" y="62"/>
      <point x="114" y="-10"/>
    </contour>
    <contour>
      <point x="530" y="0" type="curve"/>
      <point x="558" y="0"/>
      <point x="585" y="0"/>
      <point x="613" y="0" type="curve"/>
      <point x="621" y="40" type="line"/>
      <point x="593" y="40"/>
      <point x="566" y="40"/>
      <point x="538" y="40" type="curve"/>
      <point x="516" y="40"/>
      <point x="505" y="46"/>
      <point x="505" y="66" type="curve" smooth="yes"/>
      <point x="505" y="80"/>
      <point x="513" y="131"/>
      <point x="544" y="247" type="curve" smooth="yes"/>
      <point x="684" y="780" type="line"/>
      <point x="633" y="780" type="line"/>
      <point x="469" y="152" type="line"/>
      <point x="464" y="141" type="line"/>
      <point x="460" y="98"/>
      <point x="456" y="62"/>
      <point x="456" y="52" type="curve" smooth="yes"/>
      <point x="456" y="16"/>
      <point x="487" y="0"/>
    </contour>
    <contour>
      <point x="390" y="705" type="line"/>
      <point x="380" y="670" type="line"/>
      <point x="730" y="670" type="line"/>
      <point x="741" y="705" type="line"/>
    </contour>
  </outline>
</glyph>
<glyph name="eogonek" format="2">
  <advance width="570"/>
  <unicode hex="0119"/>
  <outline>
    <contour>
      <point x="256" y="-252" type="curve" smooth="yes"/>
      <point x="312" y="-252"/>
      <point x="350" y="-227"/>
      <point x="392" y="-189" type="curve"/>
      <point x="370" y="-163" type="line"/>
      <point x="345" y="-184"/>
      <point x="310" y="-217"/>
      <point x="260" y="-217" type="curve" smooth="yes"/>
      <point x="216" y="-217"/>
      <point x="199" y="-197"/>
      <point x="199" y="-164" type="curve" smooth="yes"/>
      <point x="199" y="-73"/>
      <point x="394" y="-2"/>
      <point x="461" y="58" type="curve" smooth="yes"/>
      <point x="485" y="78"/>
      <point x="496" y="91"/>
      <point x="506" y="103" type="curve"/>
      <point x="473" y="130" type="line"/>
      <point x="430" y="76"/>
      <point x="382" y="29"/>
      <point x="272" y="29" type="curve" smooth="yes"/>
      <point x="176" y="29"/>
      <point x="102" y="78"/>
      <point x="102" y="207" type="curve" smooth="yes"/>
      <point x="102" y="378"/>
      <point x="197" y="534"/>
      <point x="365" y="534" type="curve" smooth="yes"/>
      <point x="439" y="534"/>
      <point x="479" y="508"/>
      <point x="479" y="439" type="curve" smooth="yes"/>
      <point x="479" y="333"/>
      <point x="374" y="268"/>
      <point x="89" y="255" type="curve"/>
      <point x="88" y="225" type="line"/>
      <point x="382" y="234"/>
      <point x="533" y="315"/>
      <point x="533" y="441" type="curve" smooth="yes"/>
      <point x="533" y="522"/>
      <point x="477" y="575"/>
      <point x="364" y="575" type="curve" smooth="yes"/>
      <point x="178" y="575"/>
      <point x="46" y="410"/>
      <point x="46" y="210" type="curve" smooth="yes"/>
      <point x="46" y="71"/>
      <point x="137" y="-12"/>
      <point x="273" y="-12" type="curve" smooth="yes"/>
      <point x="311" y="-12"/>
      <point x="344" y="-6"/>
      <point x="374" y="5" type="curve"/>
      <point x="387" y="32" type="line"/>
      <point x="175" y="-72"/>
      <point x="142" y="-109"/>
      <point x="142" y="-164" type="curve" smooth="yes"/>
      <point x="142" y="-215"/>
      <point x="184" y="-252"/>
    </contour>
  </outline>
</glyph>
<glyph name="Iogonek" format="2">
  <advance width="381"/>
  <unicode hex="012E"/>
  <outline>
    <contour>
      <point x="190" y="35" type="line"/>
      <point x="-25" y="-74"/>
      <point x="-59" y="-110"/>
      <point x="-59" y="-166" type="curve" smooth="yes"/>
      <point x="-59" y="-215"/>
      <point x="-16" y="-252"/>
      <point x="55" y="-252" type="curve" smooth="yes"/>
      <point x="112" y="-252"/>
      <point x="150" y="-227"/>
      <point x="192" y="-189" type="curve"/>
      <point x="169" y="-163" type="line"/>
      <point x="145" y="-184"/>
      <point x="110" y="-217"/>
      <point x="60" y="-217" type="curve" smooth="yes"/>
      <point x="15" y="-217"/>
      <point x="-1" y="-197"/>
      <point x="-1" y="-163" type="curve" smooth="yes"/>
      <point x="-1" y="-103"/>
      <point x="51" y="-68"/>
      <point x="203" y="11" type="curve"/>
    </contour>
    <component base="I"/>
  </outline>
</glyph>
<glyph name="dotlessi" format="2">
  <advance width="350"/>
  <unicode hex="0131"/>
  <anchor x="186" y="565" name="top"/>
  <outline>
    <contour>
      <point x="158" y="127" type="curve" smooth="yes"/>
      <point x="265" y="565" type="line"/>
      <point x="119" y="565" type="line"/>
      <point x="110" y="529" type="line"/>
      <point x="120" y="527" type="line" smooth="yes"/>
      <point x="174" y="516"/>
      <point x="198" y="509"/>
      <point x="194" y="490" type="curve" smooth="yes"/>
      <point x="117" y="161" type="line" smooth="yes"/>
      <point x="103" y="119"/>
      <point x="93" y="83"/>
      <point x="93" y="54" type="curve" smooth="yes"/>
      <point x="93" y="19"/>
      <point x="122" y="0"/>
      <point x="164" y="0" type="curve" smooth="yes"/>
      <point x="196" y="0"/>
      <point x="228" y="0"/>
      <point x="260" y="0" type="curve"/>
      <point x="268" y="40" type="line"/>
      <point x="238" y="40"/>
      <point x="209" y="40"/>
      <point x="179" y="40" type="curve" smooth="yes"/>
      <point x="157" y="40"/>
      <point x="143" y="48"/>
      <point x="143" y="67" type="curve" smooth="yes"/>
      <point x="143" y="80"/>
      <point x="145" y="89"/>
    </contour>
  </outline>
</glyph>
<glyph name="Lslash" format="2">
  <advance width="723"/>
  <unicode hex="0141"/>
  <outline>
    <contour>
      <point x="-9" y="166" type="line"/>
      <point x="575" y="515" type="line"/>
      <point x="588" y="568" type="line"/>
      <point x="4" y="219" type="line"/>
    </contour>
    <component base="L" xOffset="12"/>
  </outline>
</glyph>
<glyph name="Eng" format="2">
  <advance width="838"/>
  <unicode hex="014A"/>
  <outline>
    <contour>
      <point x="353" y="-250" type="curve" smooth="yes"/>
      <point x="281" y="-250"/>
      <point x="231" y="-235"/>
      <point x="199" y="-219" type="curve"/>
      <point x="214" y="-175" type="line"/>
      <point x="242" y="-187"/>
      <point x="294" y="-210"/>
      <point x="358" y="-210" type="curve" smooth="yes"/>
      <point x="462" y="-210"/>
      <point x="505" y="-161"/>
      <point x="541" y="-36" type="curve" smooth="yes"/>
      <point x="557" y="25" type="line"/>
      <point x="553" y="0" type="line"/>
      <point x="289" y="691" type="line"/>
      <point x="305" y="686" type="line"/>
      <point x="139" y="54" type="line" smooth="yes"/>
      <point x="136" y="47"/>
      <point x="187" y="44"/>
      <point x="222" y="44" type="curve" smooth="yes"/>
      <point x="237" y="44" type="line"/>
      <point x="225" y="0" type="line"/>
      <point x="-25" y="0" type="line"/>
      <point x="-13" y="44" type="line"/>
      <point x="-1" y="44" type="line" smooth="yes"/>
      <point x="51" y="44"/>
      <point x="91" y="51"/>
      <point x="99" y="80" type="curve" smooth="yes"/>
      <point x="244" y="630" type="line" smooth="yes"/>
      <point x="251" y="659"/>
      <point x="215" y="666"/>
      <point x="163" y="666" type="curve" smooth="yes"/>
      <point x="152" y="666" type="line"/>
      <point x="164" y="710" type="line"/>
      <point x="334" y="710" type="line"/>
      <point x="584" y="44" type="line"/>
      <point x="566" y="47" type="line"/>
      <point x="725" y="656" type="line" smooth="yes"/>
      <point x="727" y="663"/>
      <point x="677" y="666"/>
      <point x="642" y="666" type="curve" smooth="yes"/>
      <point x="627" y="666" type="line"/>
      <point x="639" y="710" type="line"/>
      <point x="889" y="710" type="line"/>
      <point x="876" y="666" type="line"/>
      <point x="865" y="666" type="line" smooth="yes"/>
      <point x="813" y="666"/>
      <point x="773" y="659"/>
      <point x="765" y="630" type="curve" smooth="yes"/>
      <point x="591" y="-27" type="line" smooth="yes"/>
      <point x="549" y="-182"/>
      <point x="496" y="-250"/>
    </contour>
  </outline>
</glyph>
<glyph name="OE" format="2">
  <advance width="1120"/>
  <unicode hex="0152"/>
  <outline>
    <contour>
      <point x="631" y="384" type="curve"/>
      <point x="621" y="348" type="line"/>
      <point x="732" y="345"/>
      <point x="843" y="343"/>
      <point x="953" y="341" type="curve"/>
      <point x="969" y="392" type="line"/>
      <point x="857" y="390"/>
      <point x="744" y="386"/>
    </contour>
    <contour>
      <point x="1045" y="215" type="line"/>
      <point x="997" y="215" type="line"/>
      <point x="947" y="84" type="line" smooth="yes"/>
      <point x="933" y="48"/>
      <point x="893" y="39"/>
      <point x="802" y="39" type="curve" smooth="yes"/>
      <point x="559" y="39" type="line"/>
      <point x="725" y="671" type="line"/>
      <point x="932" y="671" type="line" smooth="yes"/>
      <point x="1023" y="671"/>
      <point x="1055" y="662"/>
      <point x="1050" y="626" type="curve" smooth="yes"/>
      <point x="1038" y="520" type="line"/>
      <point x="1084" y="520" type="line"/>
      <point x="1129" y="710" type="line"/>
      <point x="482" y="710" type="line" smooth="yes"/>
      <point x="193" y="710"/>
      <point x="61" y="477"/>
      <point x="61" y="278" type="curve" smooth="yes"/>
      <point x="61" y="98"/>
      <point x="160" y="0"/>
      <point x="401" y="0" type="curve" smooth="yes"/>
      <point x="988" y="0" type="line"/>
    </contour>
    <contour>
      <point x="412" y="39" type="line" smooth="yes"/>
      <point x="194" y="39"/>
      <point x="116" y="118"/>
      <point x="116" y="278" type="curve" smooth="yes"/>
      <point x="116" y="457"/>
      <point x="222" y="671"/>
      <point x="486" y="671" type="curve" smooth="yes"/>
      <point x="676" y="671" type="line"/>
      <point x="509" y="39" type="line"/>
    </contour>
  </outline>
</glyph>
<glyph name="Uogonek" format="2">
  <advance width="823"/>
  <unicode hex="0172"/>
  <outline>
    <contour>
      <point x="386" y="-252" type="curve" smooth="yes"/>
      <point x="442" y="-252"/>
      <point x="481" y="-227"/>
      <point x="522" y="-189" type="curve"/>
      <point x="500" y="-163" type="line"/>
      <point x="475" y="-184"/>
      <point x="441" y="-217"/>
      <point x="390" y="-217" type="curve" smooth="yes"/>
      <point x="346" y="-217"/>
      <point x="329" y="-197"/>
      <point x="329" y="-164" type="curve" smooth="yes"/>
      <point x="329" y="-77"/>
      <point x="474" y="-41"/>
      <point x="560" y="41" type="curve" smooth="yes"/>
      <point x="607" y="85"/>
      <point x="633" y="136"/>
      <point x="655" y="214" type="curve" smooth="yes"/>
      <point x="761" y="621" type="line" smooth="yes"/>
      <point x="770" y="655"/>
      <point x="810" y="666"/>
      <point x="862" y="666" type="curve" smooth="yes"/>
      <point x="874" y="666" type="line"/>
      <point x="886" y="710" type="line"/>
      <point x="641" y="710" type="line"/>
      <point x="629" y="666" type="line"/>
      <point x="638" y="666" type="line" smooth="yes"/>
      <point x="679" y="666"/>
      <point x="728" y="659"/>
      <point x="725" y="647" type="curve" smooth="yes"/>
      <point x="615" y="221" type="line" smooth="yes"/>
      <point x="576" y="73"/>
      <point x="510" y="15"/>
      <point x="367" y="15" type="curve" smooth="yes"/>
      <point x="246" y="15"/>
      <point x="174" y="54"/>
      <point x="174" y="171" type="curve" smooth="yes"/>
      <point x="174" y="207"/>
      <point x="179" y="245"/>
      <point x="200" y="321" type="curve" smooth="yes"/>
      <point x="286" y="656" type="line" smooth="yes"/>
      <point x="288" y="663"/>
      <point x="341" y="666"/>
      <point x="381" y="666" type="curve" smooth="yes"/>
      <point x="390" y="666" type="line"/>
      <point x="403" y="710" type="line"/>
      <point x="150" y="710" type="line"/>
      <point x="137" y="666" type="line"/>
      <point x="149" y="666" type="line" smooth="yes"/>
      <point x="201" y="666"/>
      <point x="237" y="659"/>
      <point x="229" y="630" type="curve" smooth="yes"/>
      <point x="151" y="324" type="line" smooth="yes"/>
      <point x="130" y="245"/>
      <point x="125" y="200"/>
      <point x="125" y="168" type="curve" smooth="yes"/>
      <point x="125" y="39"/>
      <point x="205" y="-25"/>
      <point x="366" y="-25" type="curve" smooth="yes"/>
      <point x="417" y="-25"/>
      <point x="461" y="-17"/>
      <point x="500" y="4" type="curve"/>
      <point x="528" y="34" type="line"/>
      <point x="305" y="-75"/>
      <point x="272" y="-108"/>
      <point x="272" y="-165" type="curve" smooth="yes"/>
      <point x="272" y="-215"/>
      <point x="314" y="-252"/>
    </contour>
  </outline>
</glyph>
<glyph name="uhorn" format="2">
  <advance width="784"/>
  <unicode hex="01B0"/>
  <anchor x="368" y="565" name="top"/>
  <outline>
    <contour>
      <point x="115" y="565" type="line"/>
      <point x="106" y="529" type="line"/>
      <point x="116" y="527" type="line" smooth="yes"/>
      <point x="170" y="517"/>
      <point x="197" y="509"/>
      <point x="192" y="490" type="curve" smooth="yes"/>
      <point x="112" y="183" type="line" smooth="yes"/>
      <point x="99" y="132"/>
      <point x="91" y="98"/>
      <point x="91" y="67" type="curve" smooth="yes"/>
      <point x="91" y="24"/>
      <point x="117" y="-11"/>
      <point x="192" y="-11" type="curve" smooth="yes"/>
      <point x="306" y="-11"/>
      <point x="384" y="81"/>
      <point x="484" y="200" type="curve"/>
      <point x="470" y="224" type="line"/>
      <point x="366" y="100"/>
      <point x="300" y="33"/>
      <point x="212" y="33" type="curve" smooth="yes"/>
      <point x="161" y="33"/>
      <point x="144" y="49"/>
      <point x="144" y="81" type="curve" smooth="yes"/>
      <point x="144" y="106"/>
      <point x="150" y="133"/>
      <point x="162" y="180" type="curve" smooth="yes"/>
      <point x="264" y="565" type="line"/>
    </contour>
    <contour>
      <point x="598" y="550" type="line"/>
      <point x="561" y="532" type="line"/>
      <point x="715" y="533"/>
      <point x="784" y="540"/>
      <point x="844" y="737" type="curve"/>
      <point x="792" y="737" type="line"/>
      <point x="741" y="605"/>
      <point x="736" y="565"/>
      <point x="582" y="565" type="curve"/>
      <point x="552" y="565" type="line"/>
      <point x="452" y="195" type="line"/>
      <point x="450" y="179" type="line"/>
      <point x="436" y="86"/>
      <point x="433" y="61"/>
      <point x="433" y="52" type="curve" smooth="yes"/>
      <point x="433" y="16"/>
      <point x="465" y="0"/>
      <point x="508" y="0" type="curve" smooth="yes"/>
      <point x="537" y="0"/>
      <point x="567" y="0"/>
      <point x="595" y="0" type="curve"/>
      <point x="603" y="40" type="line"/>
      <point x="573" y="40"/>
      <point x="542" y="40"/>
      <point x="512" y="40" type="curve" smooth="yes"/>
      <point x="490" y="40"/>
      <point x="479" y="46"/>
      <point x="479" y="66" type="curve" smooth="yes"/>
      <point x="479" y="80"/>
      <point x="488" y="132"/>
      <point x="519" y="249" type="curve" smooth="yes"/>
    </contour>
  </outline>
</glyph>
<glyph name="circumflex" format="2">
  <advance width="530"/>
  <unicode hex="02C6"/>
  <anchor x="259" y="529" name="_top"/>
  <outline>
    <contour>
      <point x="324" y="828" type="line"/>
      <point x="417" y="677" type="line"/>
      <point x="411" y="656" type="line"/>
      <point x="392" y="656" type="line"/>
      <point x="274" y="783" type="line"/>
      <point x="300" y="791" type="line"/>
      <point x="122" y="656" type="line"/>
      <point x="97" y="656" type="line"/>
      <point x="102" y="677" type="line"/>
      <point x="264" y="828" type="line"/>
    </contour>
  </outline>
</glyph>
<glyph name="ohorntilde" format="2">
  <advance width="736"/>
  <unicode hex="1EE1"/>
  <outline>
    <contour>
      <point x="441" y="669" type="curve" smooth="yes"/>
      <point x="489" y="669"/>
      <point x="515" y="697"/>
      <point x="557" y="827" type="curve"/>
      <point x="519" y="835" type="line"/>
      <point x="490" y="743"/>
      <point x="475" y="710"/>
      <point x="444" y="710" type="curve" smooth="yes"/>
      <point x="395" y="710"/>
      <point x="411" y="830"/>
      <point x="322" y="830" type="curve" smooth="yes"/>
      <point x="271" y="830"/>
      <point x="239" y="798"/>
      <point x="205" y="677" type="curve"/>
      <point x="244" y="668" type="line"/>
      <point x="270" y="754"/>
      <point x="284" y="788"/>
      <point x="314" y="788" type="curve" smooth="yes"/>
      <point x="370" y="788"/>
      <point x="350" y="669"/>
    </contour>
    <component base="ohorn"/>
  </outline>
</glyph>
<glyph name="Euro" format="2">
  <advance width="594"/>
  <unicode hex="20AC"/>
  <outline>
    <contour>
      <point x="455" y="735" type="curve" smooth="yes"/>
      <point x="183" y="735"/>
      <point x="92" y="418"/>
      <point x="92" y="210" type="curve" smooth="yes"/>
      <point x="92" y="52"/>
      <point x="156" y="-25"/>
      <point x="295" y="-25" type="curve" smooth="yes"/>
      <point x="402" y="-25"/>
      <point x="470" y="26"/>
      <point x="532" y="158" type="curve"/>
      <point x="494" y="171" type="line"/>
      <point x="448" y="75"/>
      <point x="397" y="10"/>
      <point x="299" y="10" type="curve" smooth="yes"/>
      <point x="188" y="10"/>
      <point x="141" y="74"/>
      <point x="141" y="211" type="curve" smooth="yes"/>
      <point x="141" y="256"/>
      <point x="141" y="321"/>
      <point x="166" y="406" type="curve" smooth="yes"/>
      <point x="224" y="607"/>
      <point x="319" y="700"/>
      <point x="455" y="700" type="curve" smooth="yes"/>
      <point x="504" y="700"/>
      <point x="560" y="689"/>
      <point x="603" y="667" type="curve"/>
      <point x="603" y="680"/>
      <point x="598" y="700"/>
      <point x="572" y="700" type="curve"/>
      <point x="539" y="567" type="line"/>
      <point x="587" y="567" type="line"/>
      <point x="622" y="698" type="line"/>
      <point x="600" y="710"/>
      <point x="548" y="735"/>
    </contour>
    <contour>
      <point x="45" y="452" type="line"/>
      <point x="35" y="418" type="line"/>
      <point x="432" y="418" type="line"/>
      <point x="442" y="452" type="line"/>
    </contour>
    <contour>
      <point x="-3" y="269" type="line"/>
      <point x="-13" y="235" type="line"/>
      <point x="353" y="235" type="line"/>
      <point x="363" y="269" type="line"/>
    </contour>
  </outline>
</glyph>
<glyph name="kip" format="2">
  <advance width="594"/>
  <unicode hex="20AD"/>
  <outline>
    <contour>
      <point x="52" y="391" type="line"/>
      <point x="42" y="357" type="line"/>
      <point x="526" y="357" type="line"/>
      <point x="536" y="391" type="line"/>
    </contour>
    <contour>
      <point x="-47" y="0" type="line"/>
      <point x="142" y="0" type="line"/>
      <point x="153" y="36" type="line"/>
      <point x="144" y="36" type="line" smooth="yes"/>
      <point x="112" y="36"/>
      <point x="84" y="39"/>
      <point x="86" y="46" type="curve" smooth="yes"/>
      <point x="248" y="664" type="line" smooth="yes"/>
      <point x="250" y="671"/>
      <point x="277" y="674"/>
      <point x="309" y="674" type="curve" smooth="yes"/>
      <point x="319" y="674" type="line"/>
      <point x="330" y="710" type="line"/>
      <point x="142" y="710" type="line"/>
      <point x="130" y="674" type="line"/>
      <point x="142" y="674" type="line" smooth="yes"/>
      <point x="175" y="674"/>
      <point x="197" y="667"/>
      <point x="190" y="638" type="curve" smooth="yes"/>
      <point x="42" y="72" type="line" smooth="yes"/>
      <point x="35" y="43"/>
      <point x="8" y="36"/>
      <point x="-24" y="36" type="curve" smooth="yes"/>
      <point x="-36" y="36" type="line"/>
    </contour>
    <contour>
      <point x="282" y="0" type="line"/>
      <point x="466" y="0" type="line"/>
      <point x="477" y="36" type="line"/>
      <point x="463" y="36" type="line" smooth="yes"/>
      <point x="435" y="36"/>
      <point x="418" y="41"/>
      <point x="407" y="69" type="curve" smooth="yes"/>
      <point x="277" y="378" type="line"/>
      <point x="278" y="364" type="line"/>
      <point x="559" y="645" type="line" smooth="yes"/>
      <point x="583" y="669"/>
      <point x="605" y="674"/>
      <point x="626" y="674" type="curve" smooth="yes"/>
      <point x="642" y="674" type="line"/>
      <point x="653" y="710" type="line"/>
      <point x="472" y="710" type="line"/>
      <point x="461" y="674" type="line"/>
      <point x="470" y="674" type="line" smooth="yes"/>
      <point x="498" y="674"/>
      <point x="527" y="671"/>
      <point x="526" y="664" type="curve"/>
      <point x="236" y="370" type="line"/>
      <point x="237" y="354" type="line"/>
      <point x="363" y="46" type="line"/>
      <point x="362" y="39"/>
      <point x="332" y="36"/>
      <point x="302" y="36" type="curve" smooth="yes"/>
      <point x="293" y="36" type="line"/>
    </contour>
  </outline>
</glyph>
<glyph name="ruble" format="2">
  <advance width="594"/>
  <unicode hex="20BD"/>
  <outline>
    <contour>
      <point x="401" y="185" type="line"/>
      <point x="4" y="185" type="line"/>
      <point x="14" y="220" type="line"/>
      <point x="411" y="220" type="line"/>
    </contour>
    <contour>
      <point x="57" y="381" type="line"/>
      <point x="354" y="381" type="line" smooth="yes"/>
      <point x="457" y="381"/>
      <point x="512" y="418"/>
      <point x="535" y="471" type="curve" smooth="yes"/>
      <point x="544" y="492"/>
      <point x="547" y="519"/>
      <point x="547" y="548" type="curve" smooth="yes"/>
      <point x="547" y="631"/>
      <point x="495" y="674"/>
      <point x="393" y="674" type="curve" smooth="yes"/>
      <point x="284" y="674" type="line"/>
      <point x="121" y="46" type="line" smooth="yes"/>
      <point x="119" y="39"/>
      <point x="164" y="36"/>
      <point x="200" y="36" type="curve" smooth="yes"/>
      <point x="229" y="36" type="line"/>
      <point x="218" y="0" type="line"/>
      <point x="-45" y="0" type="line"/>
      <point x="-34" y="36" type="line"/>
      <point x="-22" y="36" type="line" smooth="yes"/>
      <point x="30" y="36"/>
      <point x="70" y="43"/>
      <point x="78" y="72" type="curve" smooth="yes"/>
      <point x="225" y="638" type="line" smooth="yes"/>
      <point x="233" y="667"/>
      <point x="196" y="674"/>
      <point x="145" y="674" type="curve" smooth="yes"/>
      <point x="133" y="674" type="line"/>
      <point x="144" y="710" type="line"/>
      <point x="393" y="710" type="line" smooth="yes"/>
      <point x="532" y="710"/>
      <point x="599" y="644"/>
      <point x="599" y="549" type="curve" smooth="yes"/>
      <point x="599" y="437"/>
      <point x="523" y="346"/>
      <point x="347" y="346" type="curve" smooth="yes"/>
      <point x="47" y="346" type="line"/>
    </contour>
  </outline>
</glyph>
<glyph name="minus" format="2">
  <advance width="594"/>
  <unicode hex="2212"/>
  <outline>
    <contour>
      <point x="537" y="365" type="line"/>
      <point x="68" y="365" type="line"/>
      <point x="55" y="317" type="line"/>
      <point x="525" y="317" type="line"/>
    </contour>
  </outline>
</glyph>
<glyph name="lozenge" format="2">
  <advance width="736"/>
  <unicode hex="25CA"/>
  <outline>
    <contour>
      <point x="305" y="8" type="line"/>
      <point x="106" y="375" type="line"/>
      <point x="94" y="328" type="line"/>
      <point x="491" y="698" type="line"/>
      <point x="438" y="702" type="line"/>
      <point x="641" y="332" type="line"/>
      <point x="646" y="379" type="line"/>
      <point x="253" y="12" type="line"/>
    </contour>
    <contour>
      <point x="253" y="0" type="line"/>
      <point x="302" y="0" type="line"/>
      <point x="672" y="343" type="line"/>
      <point x="680" y="367" type="line"/>
      <point x="491" y="710" type="line"/>
      <point x="441" y="710" type="line"/>
      <point x="71" y="367" type="line"/>
      <point x="63" y="343" type="line"/>
    </contour>
  </outline>
</glyph>
<glyph name="seven.den" format="2">
  <advance width="513"/>
  <unicode hex="E409"/>
  <outline>
    <contour>
      <point x="253" y="380" type="line" smooth="yes"/>
      <point x="196" y="380"/>
      <point x="170" y="375"/>
      <point x="162" y="351" type="curve" smooth="yes"/>
      <point x="141" y="294" type="line"/>
      <point x="105" y="294" type="line"/>
      <point x="139" y="415" type="line"/>
      <point x="462" y="415" type="line"/>
      <point x="452" y="387" type="line"/>
      <point x="327" y="303"/>
      <point x="257" y="206"/>
      <point x="202" y="0" type="curve"/>
      <point x="151" y="0" type="line"/>
      <point x="205" y="183"/>
      <point x="315" y="327"/>
      <point x="423" y="391" type="curve"/>
      <point x="420" y="380" type="line"/>
    </contour>
  </outline>
</glyph>
<glyph name="eight.den" format="2">
  <advance width="517"/>
  <unicode hex="E40A"/>
  <outline>
    <contour>
      <point x="238" y="-6" type="curve" smooth="yes"/>
      <point x="338" y="-6"/>
      <point x="402" y="40"/>
      <point x="402" y="119" type="curve" smooth="yes"/>
      <point x="402" y="201"/>
      <point x="309" y="226"/>
      <point x="227" y="226" type="curve"/>
      <point x="139" y="226"/>
      <point x="66" y="197"/>
      <point x="66" y="110" type="curve" smooth="yes"/>
      <point x="66" y="38"/>
      <point x="138" y="-6"/>
    </contour>
    <contour>
      <point x="289" y="217" type="curve"/>
      <point x="351" y="217"/>
      <point x="420" y="248"/>
      <point x="420" y="323" type="curve"/>
      <point x="420" y="392"/>
      <point x="344" y="421"/>
      <point x="275" y="421" type="curve" smooth="yes"/>
      <point x="182" y="421"/>
      <point x="132" y="383"/>
      <point x="132" y="317" type="curve"/>
      <point x="132" y="252"/>
      <point x="199" y="217"/>
    </contour>
    <contour>
      <point x="276" y="232" type="curve" smooth="yes"/>
      <point x="224" y="232"/>
      <point x="177" y="259"/>
      <point x="177" y="311" type="curve" smooth="yes"/>
      <point x="177" y="315"/>
      <point x="177" y="320"/>
      <point x="179" y="333" type="curve" smooth="yes"/>
      <point x="188" y="381"/>
      <point x="223" y="397"/>
      <point x="275" y="397" type="curve" smooth="yes"/>
      <point x="336" y="397"/>
      <point x="375" y="368"/>
      <point x="375" y="322" type="curve" smooth="yes"/>
      <point x="375" y="316"/>
      <point x="375" y="314"/>
      <point x="373" y="303" type="curve" smooth="yes"/>
      <point x="365" y="251"/>
      <point x="328" y="232"/>
    </contour>
    <contour>
      <point x="234" y="206" type="curve" smooth="yes"/>
      <point x="299" y="206"/>
      <point x="350" y="181"/>
      <point x="350" y="130" type="curve" smooth="yes"/>
      <point x="350" y="121"/>
      <point x="349" y="113"/>
      <point x="347" y="101" type="curve" smooth="yes"/>
      <point x="336" y="41"/>
      <point x="296" y="18"/>
      <point x="237" y="18" type="curve" smooth="yes"/>
      <point x="164" y="18"/>
      <point x="118" y="50"/>
      <point x="118" y="104" type="curve" smooth="yes"/>
      <point x="118" y="118"/>
      <point x="119" y="125"/>
      <point x="121" y="134" type="curve" smooth="yes"/>
      <point x="133" y="188"/>
      <point x="177" y="206"/>
    </contour>
  </outline>
</glyph>
<glyph name="F.alt" format="2">
  <advance width="681"/>
  <outline>
    <contour>
      <point x="304" y="671" type="line"/>
      <point x="516" y="671" type="line" smooth="yes"/>
      <point x="608" y="671"/>
      <point x="640" y="662"/>
      <point x="636" y="626" type="curve" smooth="yes"/>
      <point x="622" y="518" type="line"/>
      <point x="668" y="518" type="line"/>
      <point x="717" y="710" type="line"/>
      <point x="164" y="710" type="line"/>
      <point x="151" y="666" type="line"/>
      <point x="163" y="666" type="line" smooth="yes"/>
      <point x="215" y="666"/>
      <point x="251" y="659"/>
      <point x="244" y="630" type="curve" smooth="yes"/>
      <point x="99" y="80" type="line" smooth="yes"/>
      <point x="91" y="51"/>
      <point x="51" y="44"/>
      <point x="-1" y="44" type="curve" smooth="yes"/>
      <point x="-13" y="44" type="line"/>
      <point x="-25" y="0" type="line"/>
      <point x="248" y="0" type="line"/>
      <point x="262" y="45" type="line"/>
      <point x="240" y="45" type="line" smooth="yes"/>
      <point x="190" y="45"/>
      <point x="140" y="48"/>
      <point x="142" y="55" type="curve" smooth="yes"/>
    </contour>
    <contour>
      <point x="209" y="383" type="line"/>
      <point x="199" y="345" type="line"/>
      <point x="405" y="345" type="line" smooth="yes"/>
      <point x="436" y="345"/>
      <point x="439" y="320"/>
      <point x="430" y="286" type="curve" smooth="yes"/>
      <point x="425" y="266" type="line"/>
      <point x="472" y="266" type="line"/>
      <point x="524" y="463" type="line"/>
      <point x="478" y="463" type="line"/>
      <point x="472" y="443" type="line" smooth="yes"/>
      <point x="463" y="408"/>
      <point x="446" y="383"/>
      <point x="415" y="383" type="curve" smooth="yes"/>
    </contour>
  </outline>
</glyph>
<glyph name="OE.alt" format="2">
  <advance width="1120"/>
  <outline>
    <contour>
      <point x="622" y="382" type="line"/>
      <point x="612" y="343" type="line"/>
      <point x="814" y="343" type="line" smooth="yes"/>
      <point x="845" y="343"/>
      <point x="850" y="320"/>
      <point x="842" y="286" type="curve" smooth="yes"/>
      <point x="836" y="264" type="line"/>
      <point x="883" y="264" type="line"/>
      <point x="936" y="462" type="line"/>
      <point x="889" y="462" type="line"/>
      <point x="884" y="443" type="line" smooth="yes"/>
      <point x="874" y="408"/>
      <point x="859" y="382"/>
      <point x="829" y="382" type="curve" smooth="yes"/>
    </contour>
    <contour>
      <point x="1046" y="221" type="line"/>
      <point x="998" y="221" type="line"/>
      <point x="947" y="84" type="line" smooth="yes"/>
      <point x="933" y="48"/>
      <point x="893" y="39"/>
      <point x="802" y="39" type="curve" smooth="yes"/>
      <point x="559" y="39" type="line"/>
      <point x="725" y="671" type="line"/>
      <point x="932" y="671" type="line" smooth="yes"/>
      <point x="1023" y="671"/>
      <point x="1055" y="662"/>
      <point x="1050" y="626" type="curve" smooth="yes"/>
      <point x="1038" y="514" type="line"/>
      <point x="1083" y="514" type="line"/>
      <point x="1129" y="710" type="line"/>
      <point x="482" y="710" type="line" smooth="yes"/>
      <point x="193" y="710"/>
      <point x="61" y="477"/>
      <point x="61" y="278" type="curve" smooth="yes"/>
      <point x="61" y="98"/>
      <point x="160" y="0"/>
      <point x="401" y="0" type="curve" smooth="yes"/>
      <point x="988" y="0" type="line"/>
    </contour>
    <contour>
      <point x="412" y="39" type="line" smooth="yes"/>
      <point x="194" y="39"/>
      <point x="116" y="118"/>
      <point x="116" y="278" type="curve" smooth="yes"/>
      <point x="116" y="457"/>
      <point x="222" y="671"/>
      <point x="486" y="671" type="curve" smooth="yes"/>
      <point x="676" y="671" type="line"/>
      <point x="509" y="39" type="line"/>
    </contour>
  </outline>
</glyph>
<glyph name="breve_hook.uc" format="2">
  <advance width="527"/>
  <anchor x="260" y="724" name="_top"/>
  <outline>
    <contour>
      <point x="152" y="1095" type="line"/>
      <point x="174" y="1171"/>
      <point x="234" y="1201"/>
      <point x="317" y="1201" type="curve" smooth="yes"/>
      <point x="415" y="1201"/>
      <point x="453" y="1157"/>
      <point x="453" y="1111" type="curve" smooth="yes"/>
      <point x="453" y="1034"/>
      <point x="373" y="1009"/>
      <point x="281" y="1007" type="curve"/>
      <point x="319" y="1034" type="line"/>
      <point x="299" y="953" type="line"/>
      <point x="248" y="953" type="line"/>
      <point x="270" y="1041" type="line"/>
      <point x="337" y="1043"/>
      <point x="392" y="1049"/>
      <point x="392" y="1112" type="curve" smooth="yes"/>
      <point x="392" y="1148"/>
      <point x="370" y="1164"/>
      <point x="315" y="1164" type="curve" smooth="yes"/>
      <point x="256" y="1164"/>
      <point x="232" y="1148"/>
      <point x="214" y="1095" type="curve"/>
    </contour>
    <contour>
      <point x="269" y="794" type="curve" smooth="yes"/>
      <point x="156" y="794"/>
      <point x="116" y="830"/>
      <point x="116" y="895" type="curve" smooth="yes"/>
      <point x="116" y="908"/>
      <point x="117" y="921"/>
      <point x="122" y="942" type="curve"/>
      <point x="161" y="942" type="line"/>
      <point x="156" y="870"/>
      <point x="171" y="847"/>
      <point x="274" y="847" type="curve" smooth="yes"/>
      <point x="358" y="847"/>
      <point x="383" y="860"/>
      <point x="404" y="942" type="curve"/>
      <point x="443" y="942" type="line"/>
      <point x="430" y="842"/>
      <point x="385" y="794"/>
    </contour>
  </outline>
</glyph>
<glyph name="cedi.proportional" format="2">
  <advance width="674"/>
  <outline>
    <contour>
      <point x="314" y="10" type="curve" smooth="yes"/>
      <point x="445" y="10"/>
      <point x="531" y="88"/>
      <point x="594" y="222" type="curve"/>
      <point x="555" y="235" type="line"/>
      <point x="495" y="107"/>
      <point x="433" y="43"/>
      <point x="317" y="43" type="curve" smooth="yes"/>
      <point x="167" y="43"/>
      <point x="95" y="139"/>
      <point x="95" y="285" type="curve" smooth="yes"/>
      <point x="95" y="458"/>
      <point x="185" y="665"/>
      <point x="415" y="665" type="curve" smooth="yes"/>
      <point x="520" y="665"/>
      <point x="590" y="634"/>
      <point x="628" y="609" type="curve"/>
      <point x="637" y="618"/>
      <point x="618" y="636"/>
      <point x="604" y="635" type="curve"/>
      <point x="568" y="502" type="line"/>
      <point x="618" y="502" type="line"/>
      <point x="656" y="642" type="line"/>
      <point x="629" y="663"/>
      <point x="537" y="700"/>
      <point x="414" y="700" type="curve" smooth="yes"/>
      <point x="146" y="700"/>
      <point x="46" y="469"/>
      <point x="46" y="283" type="curve" smooth="yes"/>
      <point x="46" y="125"/>
      <point x="123" y="10"/>
    </contour>
    <contour>
      <point x="449" y="790" type="line"/>
      <point x="421" y="678" type="line"/>
      <point x="420" y="669" type="line"/>
      <point x="257" y="51" type="line"/>
      <point x="251" y="37" type="line"/>
      <point x="210" y="-120" type="line"/>
      <point x="250" y="-120" type="line"/>
      <point x="292" y="39" type="line"/>
      <point x="292" y="47" type="line"/>
      <point x="457" y="672" type="line"/>
      <point x="461" y="680" type="line"/>
      <point x="490" y="790" type="line"/>
    </contour>
  </outline>
</glyph>
<glyph name="circumflex.uc" format="2">
  <advance width="530"/>
  <anchor x="260" y="694" name="_top"/>
  <outline>
    <contour>
      <point x="328" y="955" type="line"/>
      <point x="428" y="803" type="line"/>
      <point x="421" y="782" type="line"/>
      <point x="401" y="782" type="line"/>
      <point x="270" y="912" type="line"/>
      <point x="304" y="913" type="line"/>
      <point x="115" y="782" type="line"/>
      <point x="87" y="782" type="line"/>
      <point x="94" y="803" type="line"/>
      <point x="262" y="955" type="line"/>
    </contour>
  </outline>
</glyph>
<glyph name="f_f_b.alt" format="2">
  <advance width="1419"/>
  <outline>
    <contour>
      <point x="81" y="565" type="line"/>
      <point x="73" y="526" type="line"/>
      <point x="456" y="526" type="line"/>
      <point x="464" y="565" type="line"/>
    </contour>
    <contour>
      <point x="436" y="565" type="line"/>
      <point x="428" y="526" type="line"/>
      <point x="772" y="526" type="line"/>
      <point x="780" y="565" type="line"/>
    </contour>
    <contour>
      <point x="1056" y="-12" type="curve" smooth="yes"/>
      <point x="1280" y="-12"/>
      <point x="1373" y="212"/>
      <point x="1373" y="382" type="curve" smooth="yes"/>
      <point x="1373" y="509"/>
      <point x="1311" y="576"/>
      <point x="1195" y="576" type="curve" smooth="yes"/>
      <point x="1102" y="576"/>
      <point x="1024" y="519"/>
      <point x="940" y="435" type="curve"/>
      <point x="934" y="391" type="line"/>
      <point x="1013" y="465"/>
      <point x="1096" y="536"/>
      <point x="1194" y="536" type="curve" smooth="yes"/>
      <point x="1278" y="536"/>
      <point x="1317" y="479"/>
      <point x="1317" y="382" type="curve" smooth="yes"/>
      <point x="1317" y="246"/>
      <point x="1258" y="28"/>
      <point x="1058" y="28" type="curve" smooth="yes"/>
      <point x="943" y="28"/>
      <point x="879" y="82"/>
      <point x="852" y="104" type="curve"/>
      <point x="831" y="133"/>
      <point x="847" y="92"/>
      <point x="866" y="93" type="curve"/>
      <point x="1048" y="780" type="line"/>
      <point x="856" y="780" type="line"/>
      <point x="987" y="745" type="line"/>
      <point x="812" y="75" type="line"/>
      <point x="863" y="36"/>
      <point x="941" y="-12"/>
    </contour>
    <contour>
      <point x="447" y="742" type="curve" smooth="yes"/>
      <point x="541" y="742"/>
      <point x="602" y="718"/>
      <point x="633" y="702" type="curve"/>
      <point x="627" y="718"/>
      <point x="606" y="727"/>
      <point x="596" y="749" type="curve"/>
      <point x="577" y="645" type="line"/>
      <point x="627" y="643" type="line"/>
      <point x="651" y="732" type="line"/>
      <point x="631" y="742"/>
      <point x="550" y="775"/>
      <point x="449" y="775" type="curve" smooth="yes"/>
      <point x="301" y="775"/>
      <point x="237" y="725"/>
      <point x="221" y="641" type="curve" smooth="yes"/>
      <point x="56" y="-223" type="line"/>
      <point x="99" y="-223" type="line"/>
      <point x="274" y="638" type="line" smooth="yes"/>
      <point x="290" y="712"/>
      <point x="329" y="742"/>
    </contour>
    <contour>
      <point x="795" y="754" type="curve" smooth="yes"/>
      <point x="864" y="754"/>
      <point x="960" y="734"/>
      <point x="999" y="721" type="curve"/>
      <point x="1008" y="753" type="line"/>
      <point x="970" y="765"/>
      <point x="885" y="790"/>
      <point x="798" y="790" type="curve" smooth="yes"/>
      <point x="660" y="790"/>
      <point x="596" y="745"/>
      <point x="580" y="665" type="curve" smooth="yes"/>
      <point x="412" y="-223" type="line"/>
      <point x="454" y="-223" type="line"/>
      <point x="634" y="660" type="line" smooth="yes"/>
      <point x="646" y="721"/>
      <point x="686" y="754"/>
    </contour>
  </outline>
</glyph>
<glyph name="f_f_l.alt" format="2">
  <advance width="1073"/>
  <outline>
    <contour>
      <point x="81" y="565" type="line"/>
      <point x="73" y="526" type="line"/>
      <point x="456" y="526" type="line"/>
      <point x="464" y="565" type="line"/>
    </contour>
    <contour>
      <point x="436" y="565" type="line"/>
      <point x="428" y="526" type="line"/>
      <point x="772" y="526" type="line"/>
      <point x="780" y="565" type="line"/>
    </contour>
    <contour>
      <point x="882" y="127" type="curve" smooth="yes"/>
      <point x="1045" y="780" type="line"/>
      <point x="877" y="780" type="line"/>
      <point x="983" y="741" type="line"/>
      <point x="841" y="161" type="line" smooth="yes"/>
      <point x="827" y="119"/>
      <point x="818" y="83"/>
      <point x="818" y="54" type="curve" smooth="yes"/>
      <point x="818" y="19"/>
      <point x="846" y="0"/>
      <point x="888" y="0" type="curve" smooth="yes"/>
      <point x="920" y="0"/>
      <point x="952" y="0"/>
      <point x="984" y="0" type="curve"/>
      <point x="993" y="40" type="line"/>
      <point x="963" y="40"/>
      <point x="934" y="40"/>
      <point x="903" y="40" type="curve" smooth="yes"/>
      <point x="881" y="40"/>
      <point x="868" y="48"/>
      <point x="868" y="67" type="curve" smooth="yes"/>
      <point x="868" y="80"/>
      <point x="869" y="89"/>
    </contour>
    <contour>
      <point x="447" y="742" type="curve" smooth="yes"/>
      <point x="541" y="742"/>
      <point x="602" y="718"/>
      <point x="633" y="702" type="curve"/>
      <point x="632" y="722"/>
      <point x="619" y="734"/>
      <point x="596" y="749" type="curve"/>
      <point x="577" y="645" type="line"/>
      <point x="627" y="643" type="line"/>
      <point x="651" y="732" type="line"/>
      <point x="631" y="742"/>
      <point x="550" y="775"/>
      <point x="449" y="775" type="curve" smooth="yes"/>
      <point x="301" y="775"/>
      <point x="237" y="725"/>
      <point x="221" y="641" type="curve" smooth="yes"/>
      <point x="56" y="-223" type="line"/>
      <point x="99" y="-223" type="line"/>
      <point x="274" y="638" type="line" smooth="yes"/>
      <point x="290" y="712"/>
      <point x="329" y="742"/>
    </contour>
    <contour>
      <point x="795" y="754" type="curve" smooth="yes"/>
      <point x="864" y="754"/>
      <point x="960" y="734"/>
      <point x="999" y="721" type="curve"/>
      <point x="1008" y="753" type="line"/>
      <point x="970" y="765"/>
      <point x="885" y="790"/>
      <point x="798" y="790" type="curve" smooth="yes"/>
      <point x="660" y="790"/>
      <point x="596" y="745"/>
      <point x="580" y="665" type="curve" smooth="yes"/>
      <point x="412" y="-223" type="line"/>
      <point x="454" y="-223" type="line"/>
      <point x="634" y="660" type="line" smooth="yes"/>
      <point x="646" y="721"/>
      <point x="686" y="754"/>
    </contour>
  </outline>
</glyph>
<glyph name="f_h" format="2">
  <advance width="1059"/>
  <outline>
    <contour>
      <point x="81" y="565" type="line"/>
      <point x="73" y="526" type="line"/>
      <point x="417" y="526" type="line"/>
      <point x="425" y="565" type="line"/>
    </contour>
    <contour>
      <point x="487" y="0" type="line"/>
      <point x="694" y="780" type="line"/>
      <point x="480" y="780" type="line"/>
      <point x="631" y="740" type="line"/>
      <point x="437" y="0" type="line"/>
    </contour>
    <contour>
      <point x="840" y="160" type="line" smooth="yes"/>
      <point x="823" y="117"/>
      <point x="812" y="82"/>
      <point x="812" y="51" type="curve" smooth="yes"/>
      <point x="812" y="16"/>
      <point x="841" y="0"/>
      <point x="883" y="0" type="curve" smooth="yes"/>
      <point x="917" y="0"/>
      <point x="949" y="0"/>
      <point x="982" y="0" type="curve"/>
      <point x="990" y="40" type="line"/>
      <point x="961" y="40"/>
      <point x="931" y="40"/>
      <point x="902" y="40" type="curve" smooth="yes"/>
      <point x="880" y="40"/>
      <point x="866" y="48"/>
      <point x="866" y="67" type="curve" smooth="yes"/>
      <point x="866" y="80"/>
      <point x="867" y="88"/>
      <point x="883" y="126" type="curve" smooth="yes"/>
      <point x="952" y="379" type="line" smooth="yes"/>
      <point x="966" y="430"/>
      <point x="974" y="464"/>
      <point x="974" y="496" type="curve" smooth="yes"/>
      <point x="974" y="541"/>
      <point x="948" y="575"/>
      <point x="866" y="575" type="curve" smooth="yes"/>
      <point x="760" y="575"/>
      <point x="664" y="483"/>
      <point x="558" y="367" type="curve"/>
      <point x="570" y="345" type="line"/>
      <point x="683" y="465"/>
      <point x="765" y="532"/>
      <point x="850" y="532" type="curve" smooth="yes"/>
      <point x="902" y="532"/>
      <point x="921" y="516"/>
      <point x="921" y="483" type="curve" smooth="yes"/>
      <point x="921" y="458"/>
      <point x="915" y="430"/>
      <point x="902" y="382" type="curve" smooth="yes"/>
    </contour>
    <contour>
      <point x="439" y="754" type="curve" smooth="yes"/>
      <point x="509" y="754"/>
      <point x="604" y="734"/>
      <point x="644" y="721" type="curve"/>
      <point x="653" y="753" type="line"/>
      <point x="615" y="765"/>
      <point x="530" y="790"/>
      <point x="443" y="790" type="curve" smooth="yes"/>
      <point x="305" y="790"/>
      <point x="241" y="745"/>
      <point x="225" y="665" type="curve" smooth="yes"/>
      <point x="56" y="-223" type="line"/>
      <point x="99" y="-223" type="line"/>
      <point x="279" y="660" type="line" smooth="yes"/>
      <point x="291" y="721"/>
      <point x="331" y="754"/>
    </contour>
  </outline>
</glyph>
<glyph name="five.oldtab" format="2">
  <advance width="594"/>
  <outline>
    <contour>
      <point x="225" y="-72" type="curve" smooth="yes"/>
      <point x="408" y="-72"/>
      <point x="493" y="98"/>
      <point x="493" y="247" type="curve" smooth="yes"/>
      <point x="493" y="367"/>
      <point x="423" y="419"/>
      <point x="329" y="419" type="curve" smooth="yes"/>
      <point x="243" y="419"/>
      <point x="185" y="368"/>
      <point x="121" y="276" type="curve"/>
      <point x="141" y="291" type="line"/>
      <point x="233" y="637" type="line"/>
      <point x="213" y="613" type="line"/>
      <point x="527" y="613" type="line"/>
      <point x="552" y="657" type="line"/>
      <point x="198" y="657" type="line"/>
      <point x="94" y="263" type="line"/>
      <point x="136" y="263" type="line"/>
      <point x="195" y="339"/>
      <point x="235" y="379"/>
      <point x="324" y="379" type="curve" smooth="yes"/>
      <point x="395" y="379"/>
      <point x="440" y="336"/>
      <point x="440" y="250" type="curve" smooth="yes"/>
      <point x="440" y="134"/>
      <point x="384" y="-32"/>
      <point x="227" y="-32" type="curve" smooth="yes"/>
      <point x="95" y="-32"/>
      <point x="73" y="48"/>
      <point x="56" y="86" type="curve"/>
      <point x="5" y="71" type="line"/>
      <point x="29" y="-1"/>
      <point x="83" y="-72"/>
    </contour>
  </outline>
</glyph>
<glyph name="four.linprop" format="2">
  <advance width="632"/>
  <outline>
    <contour>
      <point x="500" y="710" type="line"/>
      <point x="506" y="698" type="line"/>
      <point x="341" y="72" type="line" smooth="yes"/>
      <point x="333" y="43"/>
      <point x="293" y="36"/>
      <point x="241" y="36" type="curve" smooth="yes"/>
      <point x="219" y="36" type="line"/>
      <point x="208" y="0" type="line"/>
      <point x="479" y="0" type="line"/>
      <point x="490" y="36" type="line"/>
      <point x="471" y="36" type="line" smooth="yes"/>
      <point x="419" y="36"/>
      <point x="383" y="43"/>
      <point x="390" y="72" type="curve" smooth="yes"/>
      <point x="558" y="710" type="line"/>
    </contour>
    <contour>
      <point x="13" y="222" type="line"/>
      <point x="567" y="222" type="line"/>
      <point x="579" y="263" type="line"/>
      <point x="56" y="263" type="line"/>
      <point x="51" y="244" type="line"/>
      <point x="528" y="705" type="line"/>
      <point x="523" y="710" type="line"/>
      <point x="482" y="710" type="line"/>
      <point x="29" y="275" type="line"/>
    </contour>
  </outline>
</glyph>
<glyph name="four.oldprop" format="2">
  <advance width="633"/>
  <outline>
    <contour>
      <point x="13" y="129" type="line"/>
      <point x="565" y="133" type="line"/>
      <point x="576" y="174" type="line"/>
      <point x="53" y="174" type="line"/>
      <point x="47" y="156" type="line"/>
      <point x="525" y="651" type="line"/>
      <point x="520" y="657" type="line"/>
      <point x="481" y="657" type="line"/>
      <point x="25" y="186" type="line"/>
    </contour>
    <contour>
      <point x="372" y="-65" type="line"/>
      <point x="563" y="657" type="line"/>
      <point x="498" y="657" type="line"/>
      <point x="510" y="645" type="line"/>
      <point x="323" y="-65" type="line"/>
    </contour>
  </outline>
</glyph>
<glyph name="four.oldtab" format="2">
  <advance width="594"/>
  <outline>
    <contour>
      <point x="6" y="133" type="line"/>
      <point x="526" y="133" type="line"/>
      <point x="537" y="174" type="line"/>
      <point x="47" y="174" type="line"/>
      <point x="43" y="155" type="line"/>
      <point x="499" y="651" type="line"/>
      <point x="493" y="657" type="line"/>
      <point x="454" y="657" type="line"/>
      <point x="20" y="186" type="line"/>
    </contour>
    <contour>
      <point x="345" y="-65" type="line"/>
      <point x="536" y="657" type="line"/>
      <point x="471" y="657" type="line"/>
      <point x="484" y="645" type="line"/>
      <point x="296" y="-65" type="line"/>
    </contour>
  </outline>
</glyph>
<glyph name="kgreenlandic" format="2">
  <advance width="595"/>
  <outline>
    <contour>
      <point x="294" y="324" type="line"/>
      <point x="429" y="62" type="line" smooth="yes"/>
      <point x="438" y="45"/>
      <point x="447" y="40"/>
      <point x="472" y="40" type="curve" smooth="yes"/>
      <point x="493" y="40"/>
      <point x="516" y="40"/>
      <point x="536" y="40" type="curve"/>
      <point x="533" y="0" type="line"/>
      <point x="512" y="0"/>
      <point x="490" y="0"/>
      <point x="469" y="0" type="curve" smooth="yes"/>
      <point x="416" y="0"/>
      <point x="403" y="12"/>
      <point x="375" y="67" type="curve" smooth="yes"/>
      <point x="253" y="304" type="line"/>
      <point x="254" y="309" type="line"/>
      <point x="348" y="395"/>
      <point x="441" y="479"/>
      <point x="535" y="565" type="curve"/>
      <point x="597" y="565" type="line"/>
      <point x="597" y="550" type="line"/>
      <point x="497" y="470"/>
      <point x="397" y="391"/>
      <point x="297" y="311" type="curve"/>
    </contour>
    <contour>
      <point x="113" y="0" type="line"/>
      <point x="263" y="565" type="line"/>
      <point x="117" y="565" type="line"/>
      <point x="108" y="529" type="line"/>
      <point x="118" y="527" type="line" smooth="yes"/>
      <point x="172" y="516"/>
      <point x="198" y="509"/>
      <point x="192" y="490" type="curve" smooth="yes"/>
      <point x="64" y="0" type="line"/>
    </contour>
  </outline>
</glyph>
<glyph name="lira.altprop" format="2">
  <advance width="623"/>
  <outline>
    <contour>
      <point x="85" y="472" type="line"/>
      <point x="74" y="436" type="line"/>
      <point x="498" y="436" type="line"/>
      <point x="506" y="472" type="line"/>
    </contour>
    <contour>
      <point x="-16" y="0" type="line"/>
      <point x="503" y="0" type="line"/>
      <point x="554" y="188" type="line"/>
      <point x="510" y="188" type="line"/>
      <point x="465" y="81" type="line" smooth="yes"/>
      <point x="449" y="45"/>
      <point x="410" y="36"/>
      <point x="319" y="36" type="curve" smooth="yes"/>
      <point x="15" y="36" type="line"/>
      <point x="33" y="13" type="line"/>
      <point x="166" y="88"/>
      <point x="240" y="165"/>
      <point x="240" y="287" type="curve" smooth="yes"/>
      <point x="240" y="384"/>
      <point x="203" y="454"/>
      <point x="203" y="534" type="curve" smooth="yes"/>
      <point x="203" y="643"/>
      <point x="279" y="699"/>
      <point x="402" y="699" type="curve" smooth="yes"/>
      <point x="476" y="699"/>
      <point x="530" y="685"/>
      <point x="586" y="656" type="curve"/>
      <point x="576" y="664"/>
      <point x="580" y="691"/>
      <point x="557" y="706" type="curve"/>
      <point x="523" y="572" type="line"/>
      <point x="571" y="572" type="line"/>
      <point x="603" y="694" type="line"/>
      <point x="588" y="701"/>
      <point x="521" y="735"/>
      <point x="406" y="735" type="curve" smooth="yes"/>
      <point x="252" y="735"/>
      <point x="149" y="663"/>
      <point x="149" y="525" type="curve" smooth="yes"/>
      <point x="149" y="436"/>
      <point x="192" y="373"/>
      <point x="192" y="266" type="curve" smooth="yes"/>
      <point x="192" y="165"/>
      <point x="108" y="95"/>
      <point x="-5" y="32" type="curve"/>
    </contour>
    <contour>
      <point x="37" y="291" type="line"/>
      <point x="27" y="256" type="line"/>
      <point x="450" y="256" type="line"/>
      <point x="459" y="291" type="line"/>
    </contour>
  </outline>
</glyph>
<glyph name="sterling.alt" format="2">
  <advance width="594"/>
  <outline>
    <contour>
      <point x="-32" y="0" type="line"/>
      <point x="468" y="0" type="line"/>
      <point x="521" y="201" type="line"/>
      <point x="476" y="201" type="line"/>
      <point x="431" y="81" type="line" smooth="yes"/>
      <point x="417" y="45"/>
      <point x="378" y="36"/>
      <point x="287" y="36" type="curve" smooth="yes"/>
      <point x="-1" y="36" type="line"/>
      <point x="17" y="12" type="line"/>
      <point x="161" y="87"/>
      <point x="235" y="181"/>
      <point x="235" y="298" type="curve" smooth="yes"/>
      <point x="235" y="379"/>
      <point x="202" y="455"/>
      <point x="202" y="534" type="curve" smooth="yes"/>
      <point x="202" y="643"/>
      <point x="274" y="701"/>
      <point x="386" y="701" type="curve" smooth="yes"/>
      <point x="463" y="701"/>
      <point x="509" y="690"/>
      <point x="562" y="658" type="curve"/>
      <point x="552" y="669"/>
      <point x="555" y="691"/>
      <point x="533" y="706" type="curve"/>
      <point x="492" y="549" type="line"/>
      <point x="540" y="549" type="line"/>
      <point x="578" y="692" type="line"/>
      <point x="564" y="700"/>
      <point x="506" y="735"/>
      <point x="389" y="735" type="curve" smooth="yes"/>
      <point x="246" y="735"/>
      <point x="150" y="664"/>
      <point x="150" y="527" type="curve" smooth="yes"/>
      <point x="150" y="441"/>
      <point x="189" y="376"/>
      <point x="189" y="282" type="curve" smooth="yes"/>
      <point x="189" y="182"/>
      <point x="104" y="95"/>
      <point x="-22" y="32" type="curve"/>
    </contour>
    <contour>
      <point x="44" y="365" type="line"/>
      <point x="35" y="331" type="line"/>
      <point x="444" y="331" type="line"/>
      <point x="453" y="365" type="line"/>
    </contour>
  </outline>
</glyph>
<glyph name="three.linprop" format="2">
  <advance width="583"/>
  <outline>
    <contour>
      <point x="309" y="380" type="line"/>
      <point x="454" y="385"/>
      <point x="545" y="456"/>
      <point x="545" y="577" type="curve" smooth="yes"/>
      <point x="545" y="671"/>
      <point x="473" y="735"/>
      <point x="338" y="735" type="curve" smooth="yes"/>
      <point x="256" y="735"/>
      <point x="182" y="706"/>
      <point x="157" y="692" type="curve"/>
      <point x="115" y="531" type="line"/>
      <point x="172" y="531" type="line"/>
      <point x="211" y="679" type="line"/>
      <point x="179" y="676"/>
      <point x="156" y="660"/>
      <point x="167" y="655" type="curve"/>
      <point x="190" y="664"/>
      <point x="243" y="694"/>
      <point x="335" y="694" type="curve" smooth="yes"/>
      <point x="433" y="694"/>
      <point x="488" y="650"/>
      <point x="488" y="570" type="curve" smooth="yes"/>
      <point x="488" y="461"/>
      <point x="409" y="399"/>
      <point x="277" y="399" type="curve" smooth="yes"/>
      <point x="171" y="399" type="line"/>
      <point x="160" y="361" type="line"/>
      <point x="252" y="361" type="line" smooth="yes"/>
      <point x="388" y="361"/>
      <point x="438" y="286"/>
      <point x="438" y="202" type="curve" smooth="yes"/>
      <point x="438" y="90"/>
      <point x="362" y="30"/>
      <point x="240" y="30" type="curve" smooth="yes"/>
      <point x="109" y="30"/>
      <point x="54" y="82"/>
      <point x="19" y="182" type="curve"/>
      <point x="-30" y="165" type="line"/>
      <point x="3" y="64"/>
      <point x="75" y="-11"/>
      <point x="240" y="-11" type="curve" smooth="yes"/>
      <point x="383" y="-11"/>
      <point x="496" y="65"/>
      <point x="496" y="201" type="curve" smooth="yes"/>
      <point x="496" y="305"/>
      <point x="430" y="364"/>
      <point x="309" y="378" type="curve"/>
      <point x="317" y="362" type="line"/>
      <point x="324" y="393" type="line"/>
    </contour>
  </outline>
</glyph>
<glyph name="two.oldprop" format="2">
  <advance width="597"/>
  <outline>
    <contour>
      <point x="510" y="36" type="line"/>
      <point x="39" y="36" type="line"/>
      <point x="30" y="24" type="line"/>
      <point x="340" y="200"/>
      <point x="543" y="305"/>
      <point x="543" y="500" type="curve" smooth="yes"/>
      <point x="543" y="606"/>
      <point x="482" y="667"/>
      <point x="336" y="667" type="curve" smooth="yes"/>
      <point x="258" y="667"/>
      <point x="183" y="638"/>
      <point x="142" y="616" type="curve"/>
      <point x="97" y="440" type="line"/>
      <point x="160" y="440" type="line"/>
      <point x="205" y="613" type="line"/>
      <point x="173" y="607"/>
      <point x="169" y="594"/>
      <point x="162" y="583" type="curve"/>
      <point x="199" y="598"/>
      <point x="252" y="622"/>
      <point x="335" y="622" type="curve" smooth="yes"/>
      <point x="429" y="622"/>
      <point x="485" y="593"/>
      <point x="485" y="498" type="curve" smooth="yes"/>
      <point x="485" y="323"/>
      <point x="355" y="255"/>
      <point x="-1" y="41" type="curve"/>
      <point x="-13" y="0" type="line"/>
      <point x="499" y="0" type="line"/>
    </contour>
  </outline>
</glyph>
<glyph name="zero.oldtab" format="2">
  <advance width="594"/>
  <outline>
    <contour>
      <point x="242" y="-11" type="curve"/>
      <point x="466" y="-11"/>
      <point x="550" y="234"/>
      <point x="550" y="449" type="curve" smooth="yes"/>
      <point x="550" y="573"/>
      <point x="499" y="667"/>
      <point x="351" y="667" type="curve"/>
      <point x="127" y="667"/>
      <point x="43" y="424"/>
      <point x="43" y="207" type="curve" smooth="yes"/>
      <point x="43" y="83"/>
      <point x="95" y="-11"/>
    </contour>
    <contour>
      <point x="247" y="28" type="curve" smooth="yes"/>
      <point x="135" y="28"/>
      <point x="97" y="94"/>
      <point x="97" y="195" type="curve" smooth="yes"/>
      <point x="97" y="245"/>
      <point x="96" y="277"/>
      <point x="113" y="360" type="curve" smooth="yes"/>
      <point x="153" y="539"/>
      <point x="226" y="629"/>
      <point x="347" y="629" type="curve" smooth="yes"/>
      <point x="458" y="629"/>
      <point x="497" y="563"/>
      <point x="497" y="461" type="curve" smooth="yes"/>
      <point x="497" y="411"/>
      <point x="497" y="379"/>
      <point x="480" y="296" type="curve" smooth="yes"/>
      <point x="441" y="117"/>
      <point x="367" y="28"/>
    </contour>
  </outline>
</glyph>
<glyph name="zero.propslash" format="2">
  <advance width="620"/>
  <outline>
    <contour>
      <point x="85" y="148" type="line"/>
      <point x="553" y="495" type="line"/>
      <point x="539" y="529" type="line"/>
      <point x="67" y="178" type="line"/>
    </contour>
    <contour>
      <point x="250" y="-11" type="curve" smooth="yes"/>
      <point x="451" y="-11"/>
      <point x="576" y="219"/>
      <point x="576" y="453" type="curve" smooth="yes"/>
      <point x="576" y="609"/>
      <point x="502" y="693"/>
      <point x="368" y="693" type="curve" smooth="yes"/>
      <point x="167" y="693"/>
      <point x="42" y="463"/>
      <point x="42" y="229" type="curve" smooth="yes"/>
      <point x="42" y="73"/>
      <point x="116" y="-11"/>
    </contour>
    <contour>
      <point x="253" y="26" type="curve" smooth="yes"/>
      <point x="144" y="26"/>
      <point x="95" y="101"/>
      <point x="95" y="221" type="curve" smooth="yes"/>
      <point x="95" y="268"/>
      <point x="99" y="313"/>
      <point x="114" y="372" type="curve" smooth="yes"/>
      <point x="152" y="534"/>
      <point x="241" y="655"/>
      <point x="364" y="655" type="curve" smooth="yes"/>
      <point x="474" y="655"/>
      <point x="523" y="580"/>
      <point x="523" y="460" type="curve" smooth="yes"/>
      <point x="523" y="413"/>
      <point x="519" y="368"/>
      <point x="504" y="309" type="curve" smooth="yes"/>
      <point x="466" y="147"/>
      <point x="377" y="26"/>
    </contour>
  </outline>
</glyph>
<glyph name="zero.slasholdprop" format="2">
  <advance width="620"/>
  <outline>
    <contour>
      <point x="80" y="136" type="line"/>
      <point x="549" y="482" type="line"/>
      <point x="535" y="516" type="line"/>
      <point x="63" y="166" type="line"/>
    </contour>
    <contour>
      <point x="356" y="629" type="curve" smooth="yes"/>
      <point x="469" y="629"/>
      <point x="516" y="551"/>
      <point x="516" y="439" type="curve" smooth="yes"/>
      <point x="516" y="395"/>
      <point x="512" y="351"/>
      <point x="499" y="296" type="curve" smooth="yes"/>
      <point x="459" y="125"/>
      <point x="376" y="28"/>
      <point x="256" y="28" type="curve" smooth="yes"/>
      <point x="143" y="28"/>
      <point x="95" y="105"/>
      <point x="95" y="217" type="curve" smooth="yes"/>
      <point x="95" y="261"/>
      <point x="100" y="305"/>
      <point x="112" y="360" type="curve" smooth="yes"/>
      <point x="152" y="531"/>
      <point x="236" y="629"/>
    </contour>
    <contour>
      <point x="359" y="667" type="curve" smooth="yes"/>
      <point x="157" y="667"/>
      <point x="42" y="439"/>
      <point x="42" y="219" type="curve" smooth="yes"/>
      <point x="42" y="83"/>
      <point x="115" y="-11"/>
      <point x="253" y="-11" type="curve" smooth="yes"/>
      <point x="454" y="-11"/>
      <point x="570" y="217"/>
      <point x="570" y="437" type="curve" smooth="yes"/>
      <point x="570" y="573"/>
      <point x="497" y="667"/>
    </contour>
  </outline>
</glyph>
